<!--?xml version="1.0" encoding="utf-8"?-->
<!-- Generator: Adobe Illustrator 22.1.0, SVG Export Plug-In . SVG Version: 6.00 Build 0)  -->
<svg version="1.1" id="_x30_" xmlns="http://www.w3.org/2000/svg" xmlns:xlink="http://www.w3.org/1999/xlink" x="0px" y="0px" viewBox="0 0 600 259.477" style="width: 600px; height: 259px;" xml:space="preserve">
<style type="text/css">
	.st0{fill:#040000;}
</style>
<g>
	<path class="st0" d="M293.739,67.998c-2.182,0.632-4.585,1.168-6.34,2.353c-3.406,2.3-7.737,2.368-11.338,4.312
		c-2.772,1.497-6.512,1.558-9.621,2.687c-7.908,2.871-15.878,5.492-24.267,7.022c-1.946,0.355-3.596,0.542-5.564-0.303
		c-1.95-0.837-4.427-0.879-6.702-1.102c-0.757-0.075-1.646,0.289-2.403,0.59c-1.975,0.786-3.834,2.017-5.882,2.383
		c-2.438,0.437-2.53,1.662-2.575,3.173c-0.079,2.694-0.262,5.394-0.157,8.077c0.041,1.048,0.493,2.207,1.183,3.059
		c2.723,3.361,6.779,5.563,10.61,7.8c3.503,2.045,6.074,4.759,8.997,7.223c2.138,1.802,4.208,4.024,7.299,4.124
		c6.119,0.199,11.551,2.771,17.675,2.795c3.533,0.014,6.877,0.616,10.153-1.849c3.853-2.9,8.17-5.27,8.234-10.233
		c0.005-0.411,0.109-0.833,0.236-1.236c0.423-1.346,1.12-2.334,2.786-3.08c2.303-1.031,4.292-2.595,6.427-3.917
		c1.094-0.677,2.215-1.322,3.57-2.128c0.36,0.955,0.746,1.444,0.685,1.902c-0.509,3.826-1.079,7.648-1.694,11.466
		c-0.078,0.482-0.378,1.132-0.815,1.364c-1.982,1.052-2.123,2.684-2.378,4.36c-0.235,1.543-0.851,3.065-0.965,4.605
		c-0.097,1.313-0.223,2.943,0.552,3.895c1.727,2.12,4.008,3.902,6.208,5.958c-3.668,1.354-7.55,2.698-11.344,4.212
		c-3.597,1.435-7.086,3.078-10.653,4.572c-2.893,1.212-5.832,2.34-8.359,3.348c-3.092-1.452-3.315-3.729-4.011-5.743
		c-4.811-2.168-9.929-2.018-14.73-0.281c-3.151,1.14-6.113,2.018-9.471,1.914c-4.756-0.147-11.004,3.035-12.696,8.676
		c1.477,1.019,2.955,2.18,4.603,3.136c1.676,0.972,3.403,2.02,5.311,2.544c4.046,1.11,4.522,4.173,5.584,6.942
		c0.553,1.442,0.918,2.941,1.472,4.755c-0.056,0.091-0.358,0.548-0.618,1.022c-2.895,5.277-1.062,10.109,4.752,12.852
		c3.46,1.633,7.345,2.747,9.543,5.934c0.743,1.076,2.11,1.955,3.427,2.574c1.717,0.806,3.639,1.734,5.525,1.764
		c2.951,0.046,5.945-0.616,9.255-1.018c0.247-0.64,0.583-1.513,0.92-2.385c0.369-0.955,0.741-1.909,1.116-2.878
		c1.442,0.049,2.514,0.086,3.691,0.126c0.549,1.09,0.581,2.551,2.55,2.592c0.321,0.007,0.705,0.482,0.894,0.814
		c1.373,2.411,0.286,5.329-2.507,6.949c-0.498,0.289-0.998,0.654-1.318,1.078c-1.715,2.272-5.362,3.092-6.235,6.006
		c-0.064,0.213-0.574,0.333-0.862,0.512c-1.257,0.785-2.595,1.494-3.741,2.385c-1.821,1.416-3.302,3.226-5.3,4.387
		c-4.504,2.617-9.259,4.91-13.867,7.396c-1.856,1.001-3.628,2.126-5.384,3.256c-3.137,2.02-6.17,4.165-9.369,6.109
		c-2.688,1.634-5.942,2.694-7.285,5.826c1.861,0.465,3.61,0.902,5.572,1.392c-0.266,0.268-0.536,0.586-0.862,0.856
		c-0.424,0.35-0.892,0.66-1.303,0.96c1.405,2.662,1.711,2.917,4.777,2.583c1.892-0.206,3.83-0.587,5.589-1.228
		c1.712-0.624,3.007-0.776,3.938,0.94c2.28-1.583,4.648-1.577,7.071-1.346c0.708,0.067,1.537,0.191,2.144-0.044
		c2.175-0.842,4.228-0.388,6.183,0.21c4.208,1.288,8.534,2.058,13.043,2.034c2.137-0.012,4.6-0.026,5.861-1.81
		c1.226-1.734,1.498-3.907,3.72-5.21c0.467-0.274,0.55-1.136,0.661-1.742c0.248-1.34,0.408-2.69,0.592-4.037
		c0.237-1.736,0.706-3.285,3.091-3.862c0.616-0.15,1.213-0.711,1.605-1.204c1.026-1.291,1.888-2.521,3.663-3.399
		c1.798-0.891,3.343-2.429,4.525-3.944c2.018-2.588,5.732-3.946,6.937-7.075c0.069-0.179,0.308-0.416,0.501-0.448
		c2.382-0.398,3.091-2.225,4.345-3.603c0.378-0.415,1.01-0.667,1.887-1.222c-0.063,0.727,0.002,1.043-0.126,1.292
		c-1.807,3.528-2.459,7.238-2.582,10.984c-0.054,1.617-0.056,3.508,0.832,4.8c3.783,5.498,6.229,11.629,10.628,16.828
		c2.829,3.344,5.808,4.626,9.621,3.916c3.309-0.616,6.741-1.017,10.094-0.999c5.478,0.029,10.908-0.033,16.273-1.298
		c2.191-0.517,4.344-1.173,6.54-1.672c4.097-0.931,8.267-1.637,12.307-2.731c3.581-0.97,7.169-1.116,10.799-1.111
		c2.552,0.004,5.138,0.438,7.634,0.125c2.442-0.306,5.006-0.995,7.137-2.08c5.32-2.71,5.605-7.799,7.514-12.099
		c0.118-0.266-0.007-0.615-0.06-0.919c-0.228-1.32-0.363-2.664-0.728-3.953c-0.828-2.925-0.182-6.263-3.226-8.599
		c-0.662-0.508-0.399-1.805-0.828-2.632c-0.745-1.438-1.661-2.812-2.583-4.174c-0.269-0.397-1.052-0.601-1.167-0.996
		c-0.607-2.088-1.059-4.211-1.598-6.316c-0.323-1.266-0.451-2.636-1.123-3.75c-0.996-1.652-1.517-3.318-1.59-5.186
		c-0.068-1.742-0.406-3.469-0.625-5.197c-0.875-0.181-1.646-0.34-1.85-0.382c-2.941-5.385-1.654-11.218-4.356-16.243
		c0.449-0.146,0.856-0.279,1.298-0.423c-0.373-0.545-0.657-0.959-0.937-1.368c0.574-0.131,0.916-0.209,1.333-0.304
		c-0.329-1.701-2.592-3.227-0.364-5.067c0.049-0.041,0.005-0.21-0.051-0.289c-1.625-2.293-1.094-4.837-0.601-7.411
		c-2.739,0.497-3.644-1.23-4.948-2.561c-0.302,1.069-0.53,1.879-0.847,3c-1.384-2.052-1.384-2.052-3.122-2.586
		c-0.014,0.444-0.235,1.032-0.007,1.216c2.488,2.012,2.181,4.617,1.902,7.2c-0.684,6.312-1.399,12.622-2.147,18.93
		c-0.147,1.237-0.125,2.647-0.83,3.662c-2.777,3.994-2.705,8.432-3.432,12.712c-1.001,5.884-1.562,11.809-2.357,17.714
		c-0.106,0.795-0.474,1.571-0.692,2.264c-6.784,1.116-13.227,2.856-20.197,2.413c0.149-1.723,0.304-3.268,0.412-4.814
		c0.152-2.183,0.378-4.372,0.346-6.55c-0.013-0.849-0.364-2.16-1.037-2.422c-2.378-0.926-2.768-2.604-2.982-4.508
		c-0.137-1.218-0.773-1.869-2.382-2.252c-2.358-0.56-4.649-1.516-6.704-2.644c-3.009-1.652-5.874-3.355-9.791-2.973
		c-0.935,0.091-1.904-0.19-2.84-0.298c-0.755-1.34-1.475-2.62-2.163-3.842c0.779-2.628,2.809-0.388,4.566-1.155
		c1.017-1.639,2.1-3.108,4.475-4.114c1.952-0.827,3.034-3.174,5.727-3.445c0.151-0.015,0.292-0.319,0.407-0.501
		c1.914-3.038,6.508-3.994,7.967-7.403c0.098-0.23,0.609-0.324,0.885-0.524c1.005-0.731,1.874-1.687,3.008-2.18
		c2.572-1.118,4.655-2.619,6.267-4.654c0.141-0.177,0.743-0.046,1.039-0.195c0.818-0.413,1.883-0.758,2.312-1.387
		c0.877-1.284,1.937-2.06,3.634-2.438c0.667-0.149,1.183-0.962,1.712-1.511c2.111-2.188,4.166-4.415,6.323-6.568
		c0.435-0.435,1.195-0.785,1.854-0.884c3.474-0.524,5.443-2.981,7.882-4.715c1.932-1.374,3.226-3.423,4.747-5.206
		c1.856-2.176,2.358-7.568,0.325-9.353c-1.962-1.721-2.113-3.447-1.77-5.623c0.456-2.889-0.842-4.03-4.082-3.427
		c-2.231,0.415-4.005,0.102-5.802-0.868c-0.789-0.426-1.794-0.559-2.634-0.93c-0.92-0.405-1.978-0.783-2.589-1.438
		c-0.858-0.919-1.589-1.702-3.153-1.734c-0.619-0.013-1.243-0.521-1.791-0.884c-5.574-3.699-11.621-1.179-14.775,2.776
		c-1.37,1.718-2.639,3.199-4.741,4.065c-1.514,0.624-3.238,0.848-4.768,1.449c-5.536,2.175-11.026,4.44-16.544,6.652
		c-0.738,0.296-1.531,0.486-2.353,0.743c-1.167-1.492-2.236-2.83-3.258-4.195c-0.182-0.243-0.251-0.597-0.236-0.898
		c0.225-4.712,0.388-9.425,0.75-14.133c0.182-2.373,0.732-4.737,1.115-7.105c0.381-2.361,0.664-4.736,1.197-7.077
		c0.168-0.739,0.829-1.687,1.569-2.019c2.254-1.011,4.639-1.807,7.005-2.616c4.427-1.513,8.874-2.981,13.317-4.457
		c2.255-0.749,4.475-1.858,6.79-2.116c3.091-0.345,5.365-1.951,7.644-3.3c2.354-1.393,4.64-2.442,7.396-2.806
		c3.603-0.476,7.313-0.642,10.775-1.559c3.851-1.02,7.504-2.599,8.167-6.787c0.273-1.726,1.4-3.282,3.225-4.448
		c2.32-1.483,2.811-3.711,2.506-5.934c-0.124-0.899-0.886-2.02-1.771-2.466c-4.409-2.222-8.903-4.295-14.089-5.153
		c-5.431-0.899-10.77-2.123-16.449-1.682c-4.512,0.35-8.919-0.127-13.251-1.113c-1.693-0.385-3.006,0.397-3.305,1.811
		c-0.433,2.044-2.048,3.068-3.968,3.858c-3.09,1.273-6.225,2.463-9.366,3.635c-1.979,0.738-3.662,2.244-6.178,1.954
		c-0.734-1.644,0.288-2.751,1.599-3.81c1.232-0.996,2.412-2.039,3.626-3.052c3.913-3.264,3.398-6.909,1.676-10.653
		c-0.395-0.857-1.064-1.66-1.228-2.548c-0.571-3.106-4.074-4.397-5.574-6.91c-0.134-0.225-0.613-0.288-0.923-0.438
		c-4.317-2.093-9.051-3.018-13.966-3.741c-3.527-0.518-7.104-0.858-10.621-1.697c-4.509-1.077-9.491-1.797-14.086,0.9
		c-2.072,1.216-4.276,2.263-6.343,3.346c0.182,0.934,0.339,1.903,0.569,2.857c0.138,0.573,0.194,1.435,0.63,1.628
		c1.704,0.753,1.533,2.186,1.92,3.426c0.146,0.468,0.102,1.113,0.455,1.376c1.613,1.201,3.148,2.66,5.069,3.335
		c2.3,0.809,2.909,2.129,3.181,3.973c0.207,1.406,0.613,2.8,1.097,4.151c0.48,1.342,1.432,2.577,1.715,3.942
		c0.64,3.087,0.194,6.427,2.855,8.995c0.136,0.131,0.125,0.396,0.133,0.601c0.079,2.173,0.155,4.346,0.218,6.519
		C295.632,67.109,295.004,67.632,293.739,67.998z M304.332,151.473c2.653-0.712,5.328-1.426,8.043-1.869
		c4.775-0.78,9.59-1.344,14.385-2.022c2.607-0.368,5.206-0.782,8.089-1.218c-0.916,2.444-0.858,5.146-3.855,6.774
		c-0.398,0.216-0.716,0.594-0.972,0.948c-2.706,3.741-5.474,7.453-8.056,11.253c-1.672,2.462-3.328,4.463-7.205,4.557
		c-2.86,0.068-5.717,1.151-8.592,0.144c-0.408-0.143-1.01-0.114-1.443,0.028c-5.11,1.68-10.367,3.793-15.536,4.469
		c-3.11,0.407-6.272,0.443-8.834,0.609c-3.424-1.928-1.107-9.13-4.921-10.324c0.838-0.428,2.048-0.703,2.175-1.165
		c0.786-2.855,3.817-3.685,6.171-4.827c3.394-1.648,6.638-3.621,10.526-4.502C297.699,153.559,300.973,152.374,304.332,151.473z" style="fill: rgb(0, 0, 0);"></path>
	<path class="st0" d="M165.783,42.576c-6.787,2.623-13.607,5.165-20.441,7.66c-3.57,1.304-7.228,2.37-10.794,3.683
		c-3.579,1.317-7.057,2.907-10.643,4.202c-7.584,2.737-15.199,5.389-22.822,8.016c-3.169,1.092-6.352,2.183-9.596,3.008
		c-8.146,2.072-16.294,4.161-24.51,5.924c-7.455,1.599-14.991,2.832-22.516,4.081c-1.103,0.183-2.362-0.364-3.51-0.706
		c-2.676-0.797-5.305-1.764-8.005-2.462c-0.747-0.193-1.856,0.077-2.483,0.552c-1.31,0.993-2.424,2.249-3.591,3.424
		c-1.467,1.475-2.163,3.361-3.091,5.174c-0.958,1.869-1.739,3.59-1.723,5.637c0.015,2.005,0.387,3.989-1.5,5.569
		c-0.525,0.439-0.474,1.673-0.531,2.553c-0.325,4.964,2.474,8.541,5.602,11.82c3.7,3.878,7.599,7.54,12.085,10.586
		c2.068,1.405,3.895,3.226,5.517,5.322c2.741,3.543,6.179,6.674,10.459,8.181c4.63,1.63,8.84,4.221,13.727,5.339
		c2.502,0.572,4.929,1.146,7.499,1.319c5.837,0.393,9.717-2.449,11.953-7.475c1.392-3.13,3.633-4.93,6.543-6.357
		c4.285-2.1,8.45-4.445,12.731-6.556c2.976-1.467,6.06-2.715,9.073-4.05c2.126,2.268,1.917,4.927,2.318,7.241
		c3.703,21.37,3.703,26.589,2.138,60.716c-0.437,9.53,0.276,8.258-0.149,17.666c-0.192,4.254-0.536,8.506-1.014,12.736
		c-0.409,3.617,1.18,6.543,2.809,9.496c0.26,0.47,0.653,0.987,1.115,1.207c4.326,2.055,8.49,4.523,13.243,5.534
		c0.949,0.202,1.963,0.108,2.948,0.126c4.338,0.081,7.825-2.548,11.764-3.744c0.571-0.173,1.081-0.771,1.468-1.286
		c0.994-1.323,2-2.656,2.812-4.093c0.517-0.916,1.266-2.302,0.926-2.993c-1.284-2.605-1.354-5.19-1.364-8.037
		c-0.013-3.62-1.23-7.22-1.58-10.862c-1.023-10.64-4.02-8.366-2.682-19.127c0.59-4.747,3.537-10.221,1.655-14.91
		c-0.207-0.517-0.029-1.188-0.029-2.016c1.231,0.345,2.199,0.582,3.144,0.887c3.089,0.998,22.27-4.507,25.362-5.476
		c13.459-4.22,14.43-1.95,15.734-2.587c4.853-2.37,7.473-6.683,7.319-12.338c-0.009-0.337,0.001-0.68,0.055-1.011
		c0.637-3.956-1.526-6.396-4.644-8.117c-1.941-1.071-4.574-1.255-6.068-2.696c-3.208-3.096-7.074-2.453-10.749-2.658
		c-5.977-0.333-27.596,11.441-33.726,10.88c-0.215-4.005-0.488-8.133-0.643-12.266c-0.15-4.005-0.131-8.016-0.273-12.022
		c-0.159-4.48-0.351-8.962-0.653-13.434c-0.174-2.563,1.17-3.963,3.247-4.975c0.995-0.486,1.993-0.969,2.964-1.5
		c3.426-1.874,6.731-4.02,10.296-5.57c1.589-0.691,3.299-1.096,5.017-1.489c5.786-3.451,12.708-5.188,19.345-5.577
		c0.132-0.1,0.274-0.19,0.403-0.292c1.533-1.217,2.975-1.533,4.766-1.044c7.92-1.743,13.982-6.041,19.764-11.541
		c1.054-1.319,2.053-2.638,2.791-4.086c0.9-1.766,1.629-3.348,3.501-4.191c0.227-0.102,0.323-0.569,0.415-0.885
		c1.471-5.055,0.229-8.324-4.191-10.824c-0.97-0.549-2.048-1.186-3.107-1.246c-2.676-0.152-4.483-1.936-6.596-3.129
		c-1.361-0.769-2.601-1.751-3.89-2.645c-5.569-3.863-11.361-7.203-18.171-8.449c-0.999-0.183-1.837-1.251-2.903-2.021
		c-2.058,0.655-4.239,1.189-6.278,2.056c-1.286,0.547-2.795,1.343-3.433,2.466C169.283,40.837,167.643,41.856,165.783,42.576z" style="fill: rgb(0, 0, 0);"></path>
	<path class="st0" d="M500.584,134.767c-2.377-8.833-0.339-17.53,0.209-26.383h3.254c0.584-4.935,5.267-8.349,4.314-13.542
		c4.545-1.58,4.545-1.58,4.442-5.978c-0.041-1.753,0.951-2.816,2.656-2.478c1.147,0.227,2.16,0.76,3.154-0.94
		c-0.78-0.605-1.553-1.334-2.444-1.869c-2.052-1.232-3.457-2.709-3.034-5.377c0.15-0.945-0.019-2.014-0.311-2.941
		c-1.011-3.212-2.056-6.419-3.275-9.555c-0.376-0.967-1.193-1.972-2.082-2.485c-1.531-0.884-2.649-2.001-3.51-3.516
		c-0.366-0.643-0.98-1.342-1.64-1.582c-1.483-0.541-2.063-1.598-2.364-3c-0.32-1.493-1.272-2.026-2.799-2.399
		c-3.062-0.748-6.36-1.199-8.509-4.026c-0.272-0.359-1.01-0.347-1.515-0.549c-0.713-0.285-1.756-0.417-2.051-0.951
		c-1.15-2.079-3.325-2.75-5.146-3.636c-2.115-1.029-4.521-2.021-7.066-0.97c-1.313,0.542-2.655,1.015-4.391,1.674
		c-0.583,1.08-1.554,2.282-3.475,2.569c-2.121,0.317-2.472,1.054-2.498,3.177c-0.03,2.498,0.102,4.973,0.628,7.419
		c0.389,1.805,0.21,3.911,2.685,4.552c0.397,0.103,0.755,0.844,0.896,1.355c0.655,2.372,1.499,4.739,1.758,7.162
		c0.305,2.858,0.165,5.776,0.063,8.663c-0.212,5.952-0.587,11.898-0.786,17.851c-0.241,7.193-0.487,14.389-0.46,21.584
		c0.006,1.651,0.678,4.208,1.812,4.754c2.173,1.046,2.245,2.846,2.822,4.354c1.221-0.408,2.347-0.785,3.674-1.228
		c-0.343,3.96-0.354,3.97-2.643,3.231c-0.701,0.94-1.182,2.236-2.04,2.574c-1.109,0.437-2.519,0.106-4.279,0.106
		c-0.098,2.095-0.2,4.261-0.311,6.64c-1.73,0.346-2.173,1.543-2.105,3.335c0.089,2.345-0.248,4.703-0.295,7.057
		c-0.024,1.204-0.244,2.737,0.375,3.552c1.453,1.915,0.667,3.51-0.002,5.273c-0.167,0.438-0.328,0.887-0.463,1.341
		c-0.826,9.069-1.138,18.153-1.161,27.268c-0.001,0.303-0.097,0.537-0.228,0.74v8.767c-0.498,0.132-1.314,0.455-2.157,0.551
		c-2.453,0.281-4.911,0.538-7.375,0.682c-4.252,0.249-8.489,0.587-12.74-0.384c-3.598-0.822-7.288-1.169-11.32-0.823
		c1.007,3.825-0.158,7.883,2.783,11.061c0.5,0.54,0.658,1.417,0.91,2.16c0.871,2.562,0.761,5.722,4.159,6.716
		c0.959,2.397,2.625,4.054,4.635,5.737c1.855,1.554,4.478,2.742,5.134,5.541c0.04,0.17,0.315,0.336,0.515,0.408
		c2.697,0.979,5.378,2.016,8.12,2.852c0.604,0.184,1.784-0.128,2.092-0.604c1.712-2.645,5.989-2.688,6.539-6.543
		c0.066-0.462,1.25-0.856,1.974-1.114c1.775-0.633,3.773-0.859,5.342-1.809c3.276-1.984,6.886-2.965,10.445-4.143
		c0.74-0.245,1.502-0.426,2.233-0.693c2.483-0.905,4.921-1.954,7.444-2.723c2.855-0.871,5.775-1.535,8.681-2.224
		c3.785-0.899,7.552-1.964,11.39-2.53c3.53-0.521,7.04-1.942,10.711-0.827c5.493-1.263,10.961,0.359,16.449,0.181
		c1.054-0.034,2.173,0.513,3.186,0.962c2.652,1.174,5.17,2.734,7.911,3.599c3.488,1.102,6.968,2.569,10.793,2.138
		c1.661-0.187,3.357-0.15,4.995-0.45c2.472-0.453,4.652-1.593,6.512-3.324c2.35-2.188,4.725-4.349,7.618-7.007
		c1.125-1.916,0.431-4.47-0.698-7.029c-0.586-1.327-0.922-2.772-1.575-4.061c-0.951-1.88-1.659-4.443-3.24-5.309
		c-2.299-1.259-3.459-3.415-5.637-4.748c0.542-1.277,1.003-2.363,1.692-3.988c-1.169,0.644-1.859,1.024-2.153,1.186
		c-0.897-1.065-2.106-1.948-2.49-3.104c-0.44-1.324-0.04-2.906-0.223-4.347c-0.073-0.577-0.793-1.045-1.106-1.624
		c-0.368-0.676-0.884-1.427-0.863-2.132c0.063-2.094,0.275-4.192,0.58-6.267c0.601-4.09,1.31-8.165,1.956-12.249
		c0.1-0.636,0.1-1.289,0.203-2.718c-1.153,2.509-1.933,4.325-2.81,6.093c-2.022,4.078-4.376,8.019-6.067,12.228
		c-1.958,4.873-5.544,8.424-8.9,12.162c-1.856,2.068-4.066,3.93-6.416,5.407c-1.839,1.156-4.116,1.648-6.238,2.312
		c-5.784,1.809-11.766,2.592-17.763,3.245c-2.767,0.301-5.558,0.387-8.324,0.697c-3.872,0.434-7.731,0.987-11.509,1.479
		c-0.337-0.663-0.492-1.349-0.919-1.738c-1.535-1.4-2.732-2.837-2.718-5.138c0.004-0.785-0.866-1.975-1.624-2.289
		c-2.368-0.98-2.703-3.097-3.264-5.091c-0.3-1.066-0.302-2.216-0.491-3.756c1.028-0.661,2.192-1.442,3.39-2.168
		c0.556-0.337,1.418-0.408,1.726-0.874c1.696-2.564,5.956-1.646,6.934-5.154c0.045-0.162,0.63-0.141,0.939-0.267
		c1.299-0.535,2.589-1.093,3.887-1.645c0.064,0.13,0.251,0.512,0.61,1.243c1.016-1.715,1.556-3.551,3.104-2.765
		c1.751,0.889,2.899-0.241,3.4-1.067c1.002-1.65,2.131-1.697,3.679-1.352c0.63,0.14,1.317,0.023,1.88,0.023
		c1.477-1.723,2.522-3.395,4.822-4.187c2.886-0.995,5.389-3.05,8.168-4.423c5.069-2.504,10.26-4.741,16.022-5.051
		c0.117-0.007,0.239-0.001,0.357-0.003c0.63-0.713,1.299-1.394,2.039-2.013c0.222-0.187,0.461-0.269,0.699-0.311
		c-0.251-0.33-0.497-0.654-0.747-0.983c0.355-0.109,0.737-0.234,1.123-0.344c1.786-0.509,2.546-1.363,2.571-3.53
		c0.018-1.531-0.808-2.717-0.75-3.947c0.091-1.932-0.666-2.76-2.176-3.661c-1.939-1.157-2.576-3.244-2.023-5.163
		c0.548-1.897-0.181-3.273-2.043-3.497c-1.347-0.162-2.729-0.031-4.086-0.031c0.908-1.261,0.714-2.195-0.973-2.601
		c-2.343-0.562-4.685-1.132-7.155-1.729c0.515,1.305,0.349,2.023-0.969,2.428c-3,0.922-6.437,0.938-8.528,3.884
		c-0.109,0.155-0.405,0.171-0.609,0.264c-3.452,1.571-6.946,3.055-10.343,4.736C509.417,130.945,505.398,133.853,500.584,134.767z
		 M488.325,184.081c-1.719-0.465-3.161-0.915-2.857-2.785c0.078-0.482,1.047-1.121,1.638-1.156
		C488.375,180.066,488.69,181.123,488.325,184.081z M489.829,142.864c-0.524-1.733-0.159-2.688,1.651-2.717
		c0.85-0.014,1.7,0.053,2.551,0.088C493.579,142.548,491.371,141.98,489.829,142.864z M494.177,140.134
		c1.071-1.868,2.575-2.572,5.096-1.554C497.343,139.168,495.756,139.652,494.177,140.134z" style="fill: rgb(0, 0, 0);"></path>
</g>
</svg>
