<!--?xml version="1.0" encoding="utf-8"?-->
<!-- Generator: Adobe Illustrator 22.1.0, SVG Export Plug-In . SVG Version: 6.00 Build 0)  -->
<svg version="1.1" id="_x30_" xmlns="http://www.w3.org/2000/svg" xmlns:xlink="http://www.w3.org/1999/xlink" x="0px" y="0px" viewBox="0 0 600 128.393" style="width: 600px; height: 128px;" xml:space="preserve">
<style type="text/css">
	.st0{fill:#040000;}
</style>
<g>
	<path class="st0" d="M306.604,51.784c-0.208-0.48-0.353-1.005-0.647-1.426c-0.787-1.126-1.889-1.841-3.19-2.283
		c-1.514-0.515-3.047-1.072-4.049-2.393c-0.7-0.923-1.26-1.969-1.779-3.011c-1.227-2.467-4.066-2.643-5.922-1.913
		c-1.044,0.41-2.169,0.613-3.422,0.954c0.129-0.764,0.174-1.281,0.307-1.774c0.378-1.397-0.286-2.669-0.67-3.88
		c-0.589-1.857-1.062-3.874-3.101-4.967c-1.253-0.671-4.098-1.939-5.472-1.906c-1.211,0.029-2.181-0.304-2.892-1.336
		c-1.519-2.206-3.614-3.672-6.031-4.778c-1.283-0.587-2.422-0.586-3.665,0.052c-0.642,0.33-1.413,0.4-2.102,0.654
		c-0.684,0.252-1.372,0.528-1.995,0.899c-0.629,0.374-1.161,0.908-1.773,1.316c-0.611,0.408-0.706,0.895-0.37,1.502
		c0.127,0.229,0.293,0.436,0.518,0.764c-1.073,0.681-0.72,1.505-0.221,2.335c0.521,0.865,0.908,1.86,1.593,2.567
		c1.265,1.308,0.933,2.696,0.309,3.988c-1.799,3.724-3.666,7.409-6.012,10.849c-1.796,2.635-3.286,5.468-5.322,7.959
		c-1.713,2.096-3.173,4.399-4.878,6.503c-2.044,2.524-4.177,4.982-6.369,7.38c-2.043,2.236-4.143,4.436-6.967,5.749
		c-0.346,0.161-0.611,0.5-0.913,0.757c0.033,0.107,0.067,0.213,0.1,0.32c0.701-0.058,1.401-0.117,2.231-0.186
		c-0.313,0.685-0.552,1.208-0.827,1.812c0.333,0.052,0.594,0.067,0.84,0.136c1.294,0.365,2.451,0.245,3.53-0.685
		c0.751-0.647,1.585-1.27,2.489-1.65c2.031-0.852,3.641-2.269,5.324-3.609c0.971-0.773,1.826-1.74,3.179-1.94
		c0.373-0.055,0.751-0.373,1.036-0.66c1.161-1.169,2.669-1.746,4.089-2.473c0.276-0.141,0.68-0.179,0.828-0.398
		c0.769-1.132,1.922-1.809,2.922-2.677c1.51-1.311,2.838-2.831,4.252-4.253c0.144-0.145,0.338-0.314,0.523-0.332
		c1.525-0.147,2.639-1.03,3.726-1.99c0.265-0.234,0.621-0.366,0.842-0.492c0.815,0.533,1.49,1.325,2.224,1.383
		c1.716,0.137,3.473,0.06,5.113-0.707c0.557-0.261,1.195-0.432,1.807-0.471c1.002-0.064,2.019-0.046,3.02,0.043
		c2.241,0.199,4.535,0.026,6.829,0.933c-0.214,0.685-0.343,1.426-0.666,2.07c-1.757,3.512-3.43,7.075-5.384,10.476
		c-2.114,3.677-4.168,7.411-6.891,10.706c-1.897,2.295-3.717,4.656-5.677,6.894c-1.293,1.477-2.769,2.794-4.173,4.173
		c-2.542,2.498-5.077,5.004-7.647,7.472c-0.529,0.508-1.181,0.897-1.808,1.291c-1.704,1.072-3.513,1.908-5.541,2.204
		c0.399,1.126,1.45,0.692,2.279,1.251c-0.546,0.6-1.038,1.14-1.58,1.734c0.462,0.216,1.03,0.303,1.279,0.632
		c0.75,0.99,1.839,0.412,2.734,0.696c0.576,0.183,1.279-0.029,2.176-0.078c0.22-0.357,0.57-0.927,0.94-1.529
		c0.996-0.233,2.378,0.123,2.631-1.494c0.006-0.038,0.08-0.066,0.124-0.097c1.267-0.886,2.534-1.773,3.808-2.664
		c-0.046-0.073-0.147-0.234-0.266-0.422c2.487-1.328,4.59-3.084,6.616-4.963c0.532-0.493,1.33-0.71,2.024-1.012
		c0.326-0.142,0.874-0.071,1.012-0.291c0.532-0.85,1.515-0.914,2.199-1.427c1.904-1.427,3.77-2.921,5.515-4.535
		c1.788-1.655,3.422-3.468,4.774-5.53c0.632-0.964,1.581-1.713,2.292-2.633c2.04-2.638,3.97-5.364,6.059-7.962
		c2.145-2.668,4.034-5.547,6.553-7.916c1.52-1.429,2.665-3.266,4.838-3.934c0.542-0.167,0.941-0.817,1.392-1.26
		c0.299-0.295,0.537-0.663,0.864-0.918c1.843-1.439,2.318-4.088,1.108-6.146C306.966,52.789,306.814,52.27,306.604,51.784z
		 M283.336,45.946c-0.029-0.126-0.058-0.252-0.087-0.378c0.528-0.11,1.056-0.219,1.585-0.329c0.016,0.116,0.032,0.231,0.048,0.347
		C284.366,45.707,283.851,45.826,283.336,45.946z" style="fill: rgb(0, 0, 0);"></path>
	<path class="st0" d="M96.855,28.169c-0.057-0.406-0.129-0.768-0.156-1.133c-0.23-3.1-1.849-5.069-4.873-5.74
		c-1.887-0.419-3.82-0.635-5.733-0.935c-0.774-0.121-1.557-0.195-2.326-0.341c-0.796-0.151-2.956,0.587-3.368,1.255
		c-0.152,0.246-0.288,0.69-0.169,0.881c0.576,0.933,0.03,1.839,0.036,2.75c0.004,0.631-0.139,1.302,0.025,1.887
		c0.594,2.119,1.301,4.206,1.937,6.313c0.148,0.488,0.386,1.076,0.242,1.502c-0.737,2.186-1.454,4.397-2.431,6.481
		c-1.199,2.56-2.601,5.031-4.003,7.49c-1.202,2.109-1.816,4.556-3.726,6.439c-5.201-4.727-11.139-8.343-17.465-11.131
		c-0.416,1.2-0.735,2.407-1.249,3.524c-0.578,1.257-0.737,2.388,0.226,3.514c0.198,0.231,0.367,0.546,0.408,0.841
		c0.321,2.311,2.159,3.775,3.243,5.643c1.165,2.008,2.999,3.624,3.795,5.905c0.034,0.099,0.06,0.231,0.134,0.281
		c1.381,0.923,1.305,2.842,2.71,3.626c-0.695,1.107-1.211,2.088-1.876,2.956c-1.88,2.453-4.179,4.566-5.878,7.171
		c-0.111,0.171-0.274,0.31-0.421,0.456c-1.062,1.054-2.149,2.085-3.183,3.164c-1.374,1.435-2.647,2.971-4.073,4.35
		c-1.807,1.747-3.702,3.407-5.601,5.055c-1.776,1.541-3.582,3.05-5.419,4.517c-1.629,1.301-3.338,2.502-4.98,3.786
		c-3.395,2.657-6.83,5.244-10.801,7.016c-0.652,0.291-1.255,0.692-1.881,1.042c0.665,0.042,1.426-0.449,1.715-0.251
		c1.107,0.757,1.701-0.212,2.501-0.498c0.374-0.134,0.781-0.207,1.179-0.235c1.51-0.106,3.021-0.196,4.321-1.104
		c1.063-0.742,2.114-1.499,3.172-2.248c0.212-0.151,0.412-0.361,0.649-0.428c2.12-0.598,3.622-2.151,5.365-3.347
		c1.034-0.71,1.888-1.833,3.354-1.865c0.321-0.007,0.638-0.435,0.947-0.682c0.194-0.155,0.344-0.384,0.558-0.493
		c1.018-0.517,2.023-1.083,3.09-1.474c0.676-0.248,0.697-0.736,0.729-1.374c0.94,0.323,1.56,0.23,1.973-0.742
		c0.219-0.516,0.881-0.879,1.399-1.227c1.152-0.775,2.473-1.351,3.479-2.276c1.43-1.315,3.306-1.814,4.819-2.971
		c0.629-0.481,1.692-0.403,2.291-1.214c0.074,0.077,0.149,0.153,0.224,0.23c-0.349,0.629-0.697,1.258-1.046,1.887
		c0.897-0.75,2.177-0.148,2.986-0.944c0.471-0.464,0.927-0.985,1.489-1.304c1.438-0.816,2.371-2.119,3.485-3.265
		c1.005-1.034,2.195-1.927,3.419-2.697c1.08-0.678,1.601-0.499,2.471,0.469c0.871,0.968,1.684,1.988,2.538,2.972
		c2.141,2.465,5.283,3.279,7.99,4.809c0.262,0.148,0.616,0.219,0.918,0.199c1.719-0.115,3.441-0.213,5.149-0.425
		c1.506-0.188,2.589-1.14,3.721-2.116c2.028-1.748,2.893-5.034,1.656-7.378c-0.576-1.092-1.019-2.214-1.849-3.226
		c-1.044-1.273-1.943-2.648-3.171-3.795c-0.529-0.494-1.088-1.43-0.971-2.038c0.209-1.089-0.272-1.471-1.171-1.78
		c0.631-1.966,1.224-3.816,1.813-5.651c-0.814-0.246-1.474-0.445-2.128-0.643c0.476-1.108,0.857-2.014,1.259-2.911
		c0.081-0.181,0.225-0.342,0.368-0.485c0.952-0.958,1.85-1.981,2.882-2.845c2.124-1.781,3.814-4.19,6.767-4.81
		c0.049-0.011,0.094-0.047,0.136-0.079c1.289-0.98,2.69-1.856,2.923-3.693c0.064-0.51,0.398-0.984,0.478-1.495
		c0.134-0.867,0.175-1.749,0.234-2.626c0.045-0.676-0.028-1.37,0.099-2.028c0.437-2.267-0.053-4.351-1.54-6.032
		C101.079,30.807,99.135,29.359,96.855,28.169z" style="fill: rgb(0, 0, 0);"></path>
	<path class="st0" d="M577.5,39.398c-1.52-1.369-3.025-2.771-4.827-3.776c-0.349-0.194-0.888-0.394-1.189-0.258
		c-0.609,0.274-1-0.015-1.475-0.229c-0.68-0.306-1.379-0.569-2.069-0.851c-1.628-0.668-3.222-0.636-4.724,0.32
		c-2.008,1.278-4.146,2.118-6.558,2.141c-0.214,0.002-0.428,0.014-0.64,0.039c-2.907,0.356-5.823,0.657-8.72,1.086
		c-4.689,0.694-9.361,1.502-14.048,2.204c-2.209,0.331-4.439,0.53-6.66,0.786c-3.386,0.39-6.775,0.756-10.156,1.178
		c-1.202,0.15-1.925-0.371-2.399-1.391c-0.113-0.242-0.208-0.492-0.307-0.74c-0.343-0.857-0.917-1.121-1.779-0.697
		c0,0.165,0.008,0.323-0.002,0.48c-0.012,0.184-0.04,0.367-0.058,0.527c-2.039,0.183-2.477,0.566-2.326,2.484
		c0.167,2.12,0.511,4.216,1.501,6.169c0.594,1.171,0.966,2.454,1.451,3.682c0.566,1.433,1.042,2.915,1.753,4.273
		c0.514,0.979,1.377,1.691,2.503,2.128c1.12,0.435,2.247,0.585,3.41,0.725c0.813,0.098,1.426-0.123,2.026-0.654
		c0.552-0.489,1.146-0.981,1.807-1.288c1.538-0.712,3.124-1.319,4.696-1.957c1.862-0.756,3.74-1.471,5.588-2.259
		c0.854-0.365,1.624-0.929,2.482-1.282c1.379-0.568,2.805-1.018,4.199-1.55c1.028-0.392,2.031-0.849,3.055-1.251
		c0.612-0.24,1.332-0.726,1.848-0.574c0.845,0.249,1.569,0.078,2.337-0.067c2.289-0.432,4.565-0.951,6.867-1.299
		c1.618-0.244,3.271-0.264,4.908-0.384c0.085,0.128,0.17,0.255,0.255,0.383c-0.716,1.102-1.384,2.238-2.156,3.299
		c-3.17,4.356-6.574,8.528-10.35,12.372c-2.233,2.273-4.535,4.505-7.003,6.514c-2.292,1.867-4.771,3.536-7.307,5.06
		c-1.964,1.18-2.703,3.341-4.339,4.745c-0.162,0.139-0.142,0.495-0.201,0.752c-0.083,0.362-0.087,0.763-0.252,1.082
		c-0.807,1.558-0.961,3.233-1.042,4.946c-0.081,1.697-0.276,3.387,2.258,3.996c0.218-0.082,0.858-0.205,1.358-0.537
		c1.634-1.087,3.227-2.238,4.816-3.39c2.228-1.614,4.41-3.293,6.069-5.522c1.593-2.141,3.547-3.887,5.751-5.614
		c0.389,0.408,0.729,0.797,1.103,1.15c0.885,0.834,1.777,1.662,2.682,2.475c1.892,1.699,4.125,3.02,5.622,5.155
		c0.761,1.085,1.571,2.135,2.357,3.203c0.715,0.971,1.679,1.672,2.56,2.474c2.076,1.89,4.459,2.46,7.064,1.734
		c1.512-0.422,2.892-1.31,4.347-1.952c0.782-0.345,1.182-0.979,1.636-1.661c1.267-1.904,0.44-5.206-0.917-6.336
		c-1.215-1.012-2.518-1.92-3.803-2.846c-0.992-0.715-2.014-1.389-3.026-2.075c-1.971-1.335-3.779-2.992-6.321-3.204
		c-0.1-0.008-0.197-0.074-0.292-0.12c-1.521-0.747-3.053-1.473-4.556-2.256c-0.64-0.333-1.218-0.786-1.962-1.275
		c1.129-1.075,2.134-2.006,3.11-2.967c1.399-1.376,2.784-2.768,4.164-4.163c1.797-1.816,3.618-3.611,5.367-5.472
		c1.931-2.055,3.757-4.208,5.702-6.25c1.055-1.108,2.124-2.325,3.434-3.037c1.778-0.965,2.714-2.497,3.603-4.11
		c0.415-0.753,0.416-1.601-0.396-2.3C578.656,40.783,578.162,39.995,577.5,39.398z" style="fill: rgb(0, 0, 0);"></path>
	<path class="st0" d="M429.472,45.653c-0.045-1.068-0.116-2.064-1.162-2.796c-1.075-0.753-2.1-1.634-2.963-2.619
		c-1.294-1.477-2.606-2.818-4.697-3.015c-0.142-0.013-0.267-0.167-0.406-0.245c-1.523-0.861-3.024-1.8-4.912-1.361
		c-0.144,0.034-0.319-0.079-0.471-0.059c-0.823,0.11-1.732,0.055-2.447,0.398c-2.491,1.193-4.901,2.561-7.693,2.969
		c-0.631,0.092-1.264,0.185-1.882,0.339c-3.561,0.884-7.12,1.78-10.677,2.686c-4.335,1.104-8.66,2.246-13.004,3.316
		c-1.012,0.249-2.08,0.276-3.035,0.395c-0.572-0.785-0.987-1.409-1.461-1.985c-0.216-0.262-0.524-0.567-0.828-0.615
		c-1.683-0.269-2.743,0.365-3.44,1.923c-0.462,1.032-0.42,2.026-0.072,3.103c0.356,1.101,0.747,2.277,0.708,3.405
		c-0.12,3.426,0.71,6.634,1.848,9.8c0.123,0.341,0.246,0.759,0.508,0.962c2.07,1.597,4.151,2.635,6.977,0.673
		c0.632-0.438,1.434-0.719,2.196-0.857c0.984-0.179,1.655-0.643,2.156-1.476c0.181-0.3,0.444-0.651,0.747-0.761
		c2.298-0.825,4.614-1.599,6.926-2.383c3.326-1.129,6.754-1.86,10.177-2.602c1.017-0.22,2.051-0.355,3.381-0.58
		c-0.661,1.178-1.143,2.105-1.686,2.994c-1.778,2.914-3.557,5.828-5.378,8.715c-1.48,2.344-3.017,4.652-4.543,6.967
		c-0.166,0.251-0.398,0.6-0.639,0.636c-1.299,0.195-2.162,1.475-3.663,1.266c0,1.025,0.041,1.923-0.017,2.814
		c-0.03,0.448-0.121,0.981-0.389,1.307c-1.556,1.896-3.32,3.589-5.299,5.044c-1.784,1.312-3.613,2.563-5.37,3.91
		c-0.635,0.486-1.327,0.988-1.241,2.04c0.043,0.517-0.168,1.155-0.832,1.43c-0.216,0.089-0.439,0.337-0.516,0.56
		c-0.584,1.698-1.188,3.391-1.673,5.118c-0.345,1.226-0.613,2.492-0.733,3.758c-0.096,1.006,0.495,1.897,1.312,2.399
		c0.853,0.524,1.314-0.433,1.815-0.892c0.679-0.624,1.311-1.163,2.294-1.321c0.572-0.092,1.163-0.545,1.588-0.986
		c1.389-1.442,2.677-2.982,4.056-4.435c2.199-2.315,4.477-4.555,6.65-6.893c1.222-1.315,2.3-2.765,3.403-4.103
		c0.944,0.492,1.943,0.758,2.565,1.393c1.145,1.17,2.324,2.432,3.023,3.881c1.087,2.252,2.473,4.025,4.728,5.191
		c1.611,0.833,3.135,0.83,4.718,0.14c0.871-0.38,1.69-0.882,2.559-1.267c1.698-0.754,2.707-1.998,2.933-3.863
		c0.122-1.005,0.235-2.015,0.436-3.005c0.173-0.855-0.023-1.556-0.572-2.205c-0.488-0.576-0.934-1.138-1.172-1.922
		c-0.236-0.777-0.743-1.557-1.336-2.121c-1.22-1.16-2.668-2.09-3.326-3.695c-0.753,0.201-1.397,0.49-2.056,0.526
		c-1.649,0.091-3.164-0.455-4.541-1.316c-1.119-0.7-1.144-1.464-0.237-2.489c0.558-0.63,1.103-1.278,1.601-1.956
		c0.998-1.361,1.753-2.986,2.992-4.063c1.514-1.315,2.549-3.026,4.2-4.261c1.733-1.296,3.144-3.078,4.782-4.567
		c1.008-0.917,1.681-2.297,2.803-2.973c2.027-1.221,3.194-3.253,4.983-4.666c1.123-0.887,2.109-1.805,3.76-1.652
		c1.431,0.133,1.729-0.402,1.598-1.866C429.465,47.115,429.503,46.382,429.472,45.653z" style="fill: rgb(0, 0, 0);"></path>
	<path class="st0" d="M504.045,48.087c-0.352-0.315-0.816-0.503-1.186-0.801c-1.477-1.191-2.915-2.431-4.42-3.586
		c-0.434-0.333-1.039-0.606-1.57-0.614c-0.865-0.014-1.384-0.332-1.776-1.075c-0.529-1-1.433-1.371-2.539-1.308
		c-0.745,0.041-1.512-0.031-2.23,0.125c-2.39,0.518-4.874,0.893-6.183,3.421c-0.164,0.316-0.626,0.583-0.997,0.669
		c-1.552,0.357-3.12,0.647-4.685,0.944c-2.352,0.445-4.713,0.845-7.059,1.319c-2.873,0.58-5.742,1.185-8.599,1.835
		c-4.043,0.92-8.082,1.857-12.106,2.853c-2.582,0.64-5.124,1.437-7.701,2.096c-1.749,0.448-1.796,0.395-2.63-1.153
		c-0.246-0.455-0.479-0.793-1.07-0.779c-1.471,0.035-3.434,1.656-3.656,3.104c-0.162,1.056,0.278,1.96,0.801,2.843
		c0.236,0.396,0.561,0.871,0.521,1.278c-0.246,2.477,0.57,4.712,1.337,6.99c0.258,0.766,0.619,1.326,1.224,1.783
		c1.753,1.322,3.762,1.711,5.893,1.497c0.325-0.033,0.747-0.427,0.887-0.756c0.707-1.654,2.399-2.155,3.615-3.206
		c1.242,0.253,1.897-0.741,2.711-1.331c2.697-1.953,5.799-3.113,8.789-4.465c2.058-0.931,4.283-1.498,6.442-2.202
		c1.45-0.473,2.888-1.062,4.38-1.316c3.703-0.632,7.432-1.11,11.154-1.624c0.316-0.044,0.657,0.104,1.142,0.19
		c-4.588,5.983-9.384,11.518-14.254,16.922c-1.397-0.278-2.359-1.008-3.264-1.866c-0.851-0.807-1.065-2.15-2.212-2.759
		c-0.373,1.878-0.75,3.64-1.063,5.413c-0.11,0.623-0.104,1.276-0.071,1.911c0.033,0.632,0.27,1.265,0.239,1.889
		c-0.114,2.264,0.928,4.232,1.544,6.306c0.094,0.317,0.438,0.681,0.749,0.789c0.989,0.344,1.255,1.247,1.706,2.006
		c0.352,0.595,0.582,1.268,0.978,1.828c0.907,1.285,1.505,2.772,2.772,3.83c0.93,0.777,2.035,1.054,3.05,1.571
		c1.29,0.656,2.307,0.512,3.422-0.179c0.623-0.386,1.232-0.878,1.917-1.063c1.632-0.438,2.741-1.43,3.311-2.946
		c0.622-1.658,0.874-3.241-0.225-4.995c-0.682-1.09-1.528-2.545-0.538-4.011c-0.579-0.362-1.209-0.566-1.516-0.999
		c-0.322-0.453-0.333-1.126-0.481-1.703c-2.259,0.661-2.259,0.661-3.201-0.706c0.799-1.046,1.526-2.027,2.283-2.986
		c2.684-3.404,5.652-6.467,9.728-8.245c0.767-0.335,1.499-0.824,2.135-1.372c1.449-1.249,2.808-2.603,4.243-3.87
		c1.233-1.088,2.468-2.189,3.801-3.146c1.246-0.895,2.663-1.549,3.933-2.414C505.411,52.738,506.34,50.143,504.045,48.087z" style="fill: rgb(0, 0, 0);"></path>
	<path class="st0" d="M357.01,42.383c-1.196-1.725-2.132-3.529-2.962-5.438c-0.761-1.753-1.579-3.513-2.628-5.101
		c-1.681-2.545-3.977-4.687-4.863-7.794c-1.24,0.522-1.757,1.515-2.398,2.415c-0.515,0.723-1.04,1.56-1.77,1.986
		c-1.493,0.871-1.962,2.201-2.061,3.728c-0.068,1.053-0.041,2.148,0.169,3.177c0.789,3.88,1.132,7.812,1.261,11.746
		c0.158,4.805,0.109,9.619,0.01,14.427c-0.058,2.821-0.354,5.647-1.231,8.359c-1.264,3.904-2.455,7.837-3.894,11.676
		c-1.699,4.538-3.387,9.089-5.651,13.399c-1.676,3.19-3.667,6.123-6.418,8.484c-0.818,0.703-1.7,1.332-2.552,1.994
		c0.037,0.068,0.074,0.136,0.11,0.204c1.005-0.465,2.009-0.931,3.013-1.396c-1.271,1.576-3.598,1.903-4.168,4.133
		c0.734,0,1.469,0.03,2.2-0.006c1.672-0.083,3.176-0.599,4.589-1.55c1.197-0.805,2.049-2.24,3.749-2.218
		c0.114,0.001,0.222-0.218,0.347-0.316c0.587-0.461,1.296-0.824,1.744-1.394c0.916-1.165,2.594-1.024,3.495-2.177
		c0.1-0.128,0.503-0.018,1.07-0.018c-0.289-1.279,0.827-1.486,1.307-2.168c0.589-0.838,1.242-1.481,2.298-1.632
		c0.178-0.026,0.362-0.196,0.493-0.344c0.686-0.775,1.361-1.559,2.031-2.348c1.427-1.683,2.767-3.449,4.292-5.037
		c2.298-2.392,3.785-5.282,5.152-8.212c2.025-4.342,2.669-9.03,2.913-13.779c0.041-0.794,0.148-1.585,0.249-2.375
		c0.223-1.739,0.655-3.478,0.648-5.215c-0.012-2.839,0.82-5.426,1.694-8.061c0.406-1.223,0.703-2.724,0.358-3.897
		C359.064,45.784,358.116,43.979,357.01,42.383z" style="fill: rgb(0, 0, 0);"></path>
	<path class="st0" d="M160.938,46.33c0.003-0.255-0.054-0.532-0.162-0.763c-1.214-2.598-2.996-4.628-5.732-5.704
		c-0.275-0.108-0.555-0.281-0.75-0.497c-1.582-1.758-3.13-3.548-4.722-5.297c-0.528-0.58-1.132-1.102-1.75-1.588
		c-0.566-0.444-1.257-1.197-1.789-1.118c-1.055,0.158-0.944-1.08-1.764-1.091c-0.604-0.007-1.186-0.381-1.807,0.052
		c-0.212,0.149-0.569,0.089-0.859,0.128c-2.006,0.27-2.32,1.288-2.102,2.789c0.248,1.708,0.457,3.436,0.491,5.159
		c0.043,2.099-0.161,4.201-0.175,6.303c-0.031,4.631-0.012,9.262-0.006,13.893c0,0.419,0.036,0.84,0.081,1.257
		c0.27,2.491,0.72,4.97,0.443,7.493c-0.074,0.677-0.194,1.354-0.201,2.032c-0.026,2.543,0.015,5.087-0.037,7.629
		c-0.012,0.586-0.304,1.165-0.455,1.751c-0.064,0.248-0.178,0.518-0.136,0.753c0.334,1.859-0.385,3.622-0.465,5.444
		c-0.051,1.144-0.199,2.3-0.45,3.417c-0.494,2.196-1.083,4.371-1.65,6.55c-0.128,0.489-0.353,0.952-0.489,1.44
		c-0.407,1.458-1.055,2.799-1.886,4.059c-0.024,0.037,0.065,0.15,0.133,0.294c0.363-0.245,0.717-0.484,1.287-0.868
		c-0.562,1.182-0.991,2.082-1.476,3.1c0.624,0,1.288-0.132,1.871,0.029c1.056,0.292,1.187-0.679,1.659-1.108
		c0.965-0.876,1.809-1.883,2.702-2.837c0.573-0.611,1.147-1.223,1.799-1.918c0.062,0.415,0.106,0.706,0.15,0.998
		c0.091,0.013,0.182,0.025,0.274,0.038c0.908-1.65,1.792-3.314,2.729-4.946c1.147-1.997,2.074-4.108,3.281-6.077
		c0.837-1.364,1.493-2.845,2.154-4.308c0.578-1.278,1.043-2.608,1.572-3.909c0.375-0.923,0.884-1.807,1.137-2.761
		c0.622-2.349,1.443-4.6,2.728-6.672c0.248-0.4,0.492-0.827,0.614-1.275c0.937-3.434,1.693-6.926,2.798-10.304
		C161.227,54.083,160.898,50.206,160.938,46.33z" style="fill: rgb(0, 0, 0);"></path>
	<path class="st0" d="M222.558,54.078c-3.232,0.723-6.533,0.962-9.81,1.389c-5.2,0.678-10.374,1.594-15.534,2.544
		c-4.227,0.779-8.414,1.769-12.625,2.632c-0.955,0.196-1.99,0.496-2.897,0.308c-0.978-0.203-1.855-0.911-2.763-1.421
		c-0.433-0.243-0.837-0.537-1.292-0.834c-0.372,0.537-0.635,0.917-0.941,1.358c-0.959,0.094-1.924-0.146-2.31,1.053
		c-0.322,1.001-0.151,1.86,0.387,2.697c0.111,0.173,0.274,0.313,0.398,0.478c0.283,0.376,0.646,0.721,0.818,1.144
		c0.565,1.393,1.277,2.737,1.305,4.314c0.011,0.658,0.292,1.316,0.489,1.963c0.106,0.346,0.447,0.68,0.421,0.998
		c-0.151,1.834,0.579,3.069,2.035,4.235c0.802,0.643,1.462,1.263,2.494,1.391c0.416,0.052,0.854,0.066,1.237,0.213
		c1.51,0.582,2.982,0.427,4.456-0.114c0.492-0.18,1.013-0.496,1.493-0.451c1.327,0.124,2.449-0.386,3.55-0.953
		c2.327-1.199,4.622-2.461,6.935-3.689c2.697-1.432,5.341-2.918,7.28-5.394c0.646-0.826,1.402-1.614,2.25-2.221
		c0.788-0.564,1.475-1.136,1.944-1.994c0.128-0.235,0.517-0.324,0.783-0.486c0.615-0.373,1.214-0.777,1.845-1.119
		c1.789-0.972,3.514-2.137,5.411-2.816c1.85-0.663,3.444-1.682,5.091-2.663c0.149-0.089,0.384-0.314,0.356-0.375
		c-0.367-0.812,0.572-1.045,0.699-1.624c-0.218-0.109-0.431-0.217-0.682-0.343c0.363-0.469,0.685-0.885,1.042-1.348
		C225.05,53.355,223.822,53.796,222.558,54.078z" style="fill: rgb(0, 0, 0);"></path>
	<path class="st0" d="M132.159,63.013c0.014-0.941,0.105-1.743,0.658-2.49c0.295-0.398,0.693-0.714,0.44-1.364
		c-0.104-0.265,0.249-0.709,0.382-1.042c-0.858-0.487-1.658-0.94-2.525-1.432c0.514-1.06,0.991-2.042,1.468-3.024
		c-1.504,1.052-2.809,2.26-4.574,2.653c-0.626-0.779-1.143-1.513-1.751-2.16c-1.181-1.256-2.482-2.405-3.601-3.713
		c-0.733-0.856-1.238-1.909-1.834-2.881c-0.203-0.332-0.371-0.686-0.63-1.171c-1.466,1.393-2.276,2.951-2.968,4.595
		c-0.63,1.498-1.277,2.99-1.96,4.465c-0.588,1.271-0.757,2.496,0.058,3.746c0.223,0.342,0.268,0.793,0.456,1.163
		c0.594,1.166,0.153,2.377,0.194,3.565c0.087,2.502-0.013,4.957,1.554,7.251c0.822,1.204,1.422,2.402,2.707,3.279
		c2.576,1.755,5.292,2.303,8.3,1.667c0.303-0.064,0.622-0.096,0.931-0.079c0.94,0.051,1.601-0.463,2.181-1.087
		c0.425-0.457,0.758-0.998,1.155-1.482c1.447-1.767,1.22-3.81,0.49-5.637C132.654,66.244,132.133,64.753,132.159,63.013z" style="fill: rgb(0, 0, 0);"></path>
	<path class="st0" d="M323.86,70.911c1.463-0.468,2.846-0.813,4.348-0.297c0.678,0.233,1.103-0.131,1.422-0.708
		c0.38-0.689,0.833-1.339,1.185-2.041c0.255-0.507,0.442-1.06,0.578-1.612c0.384-1.555-0.354-2.978-0.592-4.459
		c-0.368-2.286-0.992-4.556-0.122-6.958c-1.454-0.513-1.584-1.736-1.648-2.97c-0.898-0.153-0.887-0.158-1.309-1.073
		c-0.87-1.885-1.763-3.747-3.15-5.343c-0.465-0.535-0.684-1.302-0.946-1.989c-0.225-0.589-0.351-1.216-0.623-2.191
		c-1.917,2.008-3.343,3.944-4.247,6.257c-0.639,1.635-1.338,3.247-1.978,4.882c-0.23,0.587-0.516,1.209-0.52,1.816
		c-0.012,1.802,0.11,3.604,0.167,5.407c0.019,0.587,0.161,1.234-0.029,1.751c-0.586,1.588-0.1,3.049,0.362,4.515
		c0.631,2.001,1.887,3.497,3.716,4.563C321.573,71.101,322.764,71.262,323.86,70.911z" style="fill: rgb(0, 0, 0);"></path>
</g>
</svg>
