<!--?xml version="1.0" encoding="utf-8"?-->
<!-- Generator: Adobe Illustrator 22.1.0, SVG Export Plug-In . SVG Version: 6.00 Build 0)  -->
<svg version="1.1" id="_x30_" xmlns="http://www.w3.org/2000/svg" xmlns:xlink="http://www.w3.org/1999/xlink" x="0px" y="0px" viewBox="0 0 600 308.197" style="width: 600px; height: 308px;" xml:space="preserve">
<style type="text/css">
	.st0{fill:#060001;}
</style>
<g>
	<path class="st0" d="M149.405,156.597c-0.003,0.59,0.116,1.108,0.325,1.585c0.209,0.476,0.509,0.911,0.867,1.332
		c0.746,0.877,1.749,1.225,2.694,1.088c0.945-0.136,1.831-0.755,2.34-1.811c0.046-0.094,0.107-0.181,0.175-0.268
		c0.068-0.087,0.143-0.175,0.214-0.273c0.287-0.014,0.574-0.027,0.862-0.041c0.289-0.014,0.579-0.027,0.871-0.042
		c0.155-0.286,0.266-0.547,0.378-0.775c0.111-0.228,0.222-0.423,0.374-0.576c0.495-0.5,0.834-0.981,0.99-1.445
		c0.155-0.464,0.127-0.91-0.114-1.338c-0.272-0.483-0.623-0.849-1.046-1.061c-0.424-0.212-0.92-0.27-1.481-0.139
		c-0.435,0.101-0.812,0.096-1.154-0.016c-0.343-0.112-0.653-0.328-0.957-0.649c-0.284-0.3-0.596-0.573-0.909-0.832
		c-0.313-0.26-0.628-0.507-0.917-0.754c-1.015,0.146-1.492,0.925-1.967,1.686c-0.475,0.762-0.948,1.506-1.954,1.585
		c0.074,0.462,0.177,0.92,0.261,1.377C149.342,155.688,149.407,156.143,149.405,156.597z" style="fill: rgb(0, 0, 0);"></path>
	<path class="st0" d="M113.518,196.272c-0.598-0.004-1.162,0.053-1.648,0.265c-0.486,0.212-0.895,0.577-1.182,1.191
		c-0.365,0.781-0.608,1.604-0.612,2.386c-0.004,0.783,0.231,1.524,0.818,2.143c0.441,0.464,0.688,0.861,0.801,1.286
		c0.113,0.424,0.091,0.876-0.005,1.448c-0.106,0.628,0.196,1.229,0.686,1.662c0.491,0.433,1.17,0.696,1.82,0.647
		c0.629-0.048,1.266-0.391,1.686-0.859c0.42-0.468,0.621-1.062,0.378-1.614c-0.312-0.707-0.284-1.264-0.118-1.776
		c0.165-0.513,0.469-0.982,0.705-1.514c0.602-1.355,0.49-2.674-0.133-3.653C116.091,196.905,114.958,196.266,113.518,196.272z" style="fill: rgb(0, 0, 0);"></path>
	<path class="st0" d="M147.715,257.935c-0.383-0.465-0.936-0.8-1.675-0.994c-0.815-0.214-1.512-0.141-2.11,0.135
		c-0.598,0.276-1.098,0.755-1.52,1.353c-0.307,0.434-0.565,0.914-0.787,1.412c-0.222,0.498-0.41,1.016-0.575,1.528
		c-0.459,1.422-0.396,2.522,0.156,3.273c0.552,0.751,1.593,1.152,3.091,1.176c1.256,0.02,2.093-0.101,2.695-0.53
		c0.602-0.429,0.968-1.167,1.281-2.379c0.131-0.505,0.175-1.039,0.177-1.581c0.001-0.542-0.04-1.089-0.082-1.62
		C148.31,258.995,148.098,258.401,147.715,257.935z" style="fill: rgb(0, 0, 0);"></path>
	<path class="st0" d="M103.391,161.56c0.772,0.035,1.544-0.397,2.12-1.066c0.576-0.669,0.957-1.576,0.945-2.492
		c-0.015-1.137-0.249-1.909-0.776-2.384c-0.527-0.474-1.346-0.651-2.531-0.595c-0.935,0.044-1.652,0.352-2.128,0.901
		c-0.476,0.548-0.711,1.336-0.684,2.337c0.021,0.778,0.42,1.587,0.996,2.208C101.908,161.091,102.661,161.527,103.391,161.56z" style="fill: rgb(0, 0, 0);"></path>
	<path class="st0" d="M191.698,163.682c0.479-0.581,0.784-1.296,0.739-1.931c-0.046-0.644-0.462-1.299-1.029-1.78
		c-0.568-0.48-1.287-0.787-1.939-0.734c-0.764,0.063-1.451,0.414-1.937,0.922c-0.485,0.509-0.769,1.175-0.726,1.868
		c0.046,0.738,0.49,1.482,1.09,2.017c0.6,0.534,1.356,0.86,2.027,0.76C190.568,164.709,191.22,164.263,191.698,163.682z" style="fill: rgb(0, 0, 0);"></path>
	<path class="st0" d="M150.36,170.736c0.624-0.063,1.208-0.406,1.632-0.895c0.424-0.488,0.688-1.12,0.672-1.758
		c-0.022-0.899-0.292-1.589-0.779-2.041c-0.487-0.452-1.192-0.666-2.083-0.615c-0.642,0.036-1.167,0.327-1.527,0.804
		c-0.359,0.477-0.552,1.139-0.526,1.92c0.027,0.806,0.322,1.488,0.789,1.951C149.005,170.564,149.645,170.808,150.36,170.736z" style="fill: rgb(0, 0, 0);"></path>
	<path class="st0" d="M160.061,179.486c0.48,0.435,1.07,0.688,1.527,0.493c0.381-0.163,0.703-0.463,1.049-0.84
		c0.346-0.378,0.715-0.833,1.19-1.308c-0.514-0.367-0.931-0.743-1.315-1.048c-0.384-0.305-0.736-0.538-1.12-0.622
		c-0.633-0.138-1.191,0.023-1.586,0.356c-0.395,0.332-0.628,0.836-0.611,1.384C159.211,178.433,159.581,179.05,160.061,179.486z" style="fill: rgb(0, 0, 0);"></path>
	<path class="st0" d="M158.769,253.951c-0.458-0.047-0.925,0.006-1.174,0.185c-0.575,0.412-0.766,0.934-0.744,1.511
		c0.021,0.578,0.254,1.211,0.527,1.845c0.535,0.086,1.101,0.237,1.597,0.197c0.496-0.041,0.92-0.273,1.172-0.955
		c0.129-0.349,0.175-0.823,0.133-1.268c-0.042-0.446-0.172-0.863-0.397-1.101C159.674,254.144,159.227,253.997,158.769,253.951z" style="fill: rgb(0, 0, 0);"></path>
	<path class="st0" d="M161.392,192.075c0.609,0.445,1.108,0.912,1.523,1.254c0.415,0.342,0.748,0.559,1.027,0.503
		c0.363-0.072,0.768-0.337,1.109-0.678c0.341-0.341,0.617-0.758,0.721-1.134c0.173-0.625-0.068-1.053-0.458-1.322
		c-0.39-0.269-0.929-0.378-1.352-0.362c-0.346,0.013-0.684,0.23-1.088,0.553C162.471,191.212,162.001,191.64,161.392,192.075z" style="fill: rgb(0, 0, 0);"></path>
	<path class="st0" d="M206.922,232.915c-0.413,0.526-0.46,1.503-0.316,3.099c0.112,0.052,0.224,0.104,0.336,0.156
		c0.112,0.052,0.224,0.104,0.336,0.156c0.346-0.61,0.693-1.22,1.049-1.848c0.356-0.628,0.723-1.274,1.11-1.956
		C208.115,232.314,207.335,232.389,206.922,232.915z" style="fill: rgb(0, 0, 0);"></path>
	<path class="st0" d="M141.873,230.548c-0.191-0.021-0.405,0.167-0.625,0.414c-0.22,0.246-0.447,0.55-0.663,0.761
		c0.239,0.241,0.46,0.531,0.693,0.787c0.233,0.256,0.479,0.477,0.767,0.581c0.15,0.054,0.374-0.1,0.661-0.343
		c0.287-0.242,0.637-0.573,1.038-0.874c-0.4-0.304-0.726-0.62-1.023-0.867C142.424,230.758,142.157,230.579,141.873,230.548z" style="fill: rgb(0, 0, 0);"></path>
	<path class="st0" d="M151.6,178.208c-0.242-0.195-0.543-0.36-0.794-0.443c-0.108-0.036-0.353,0.116-0.567,0.313
		c-0.215,0.197-0.399,0.44-0.386,0.585c0.022,0.251,0.149,0.493,0.327,0.766c0.178,0.273,0.407,0.578,0.633,0.954
		c0.287-0.341,0.602-0.628,0.84-0.879c0.238-0.252,0.401-0.469,0.386-0.674C152.024,178.628,151.842,178.404,151.6,178.208z" style="fill: rgb(0, 0, 0);"></path>
	<path class="st0" d="M147.381,268.719c-0.079,0.023-0.169,0.096-0.239,0.182c-0.07,0.086-0.119,0.184-0.116,0.259
		c0.003,0.077,0.083,0.188,0.169,0.276c0.085,0.089,0.175,0.155,0.199,0.143c0.11-0.057,0.209-0.136,0.322-0.238
		c0.114-0.103,0.242-0.229,0.412-0.381c-0.189-0.066-0.336-0.138-0.456-0.186C147.551,268.724,147.459,268.697,147.381,268.719z" style="fill: rgb(0, 0, 0);"></path>
	<path class="st0" d="M165.673,139.514c0.203-0.152,0.392-0.27,0.552-0.385c0.16-0.114,0.293-0.225,0.386-0.363
		c0.036-0.053-0.027-0.222-0.11-0.375c-0.083-0.153-0.186-0.291-0.228-0.284c-0.175,0.027-0.35,0.082-0.518,0.156
		c-0.168,0.074-0.327,0.168-0.47,0.274c-0.028,0.02,0.019,0.141,0.098,0.318C165.46,139.03,165.571,139.265,165.673,139.514z" style="fill: rgb(0, 0, 0);"></path>
	<path class="st0" d="M142.392,212.708c-0.089,0.117-0.179,0.234-0.277,0.361c-0.098,0.127-0.203,0.265-0.325,0.424
		c0.152,0.11,0.289,0.243,0.416,0.348c0.127,0.104,0.243,0.178,0.352,0.169c0.115-0.009,0.223-0.099,0.329-0.211
		c0.106-0.112,0.21-0.247,0.317-0.347c-0.135-0.124-0.271-0.248-0.406-0.372C142.663,212.956,142.527,212.832,142.392,212.708z" style="fill: rgb(0, 0, 0);"></path>
	<path class="st0" d="M321.444,89.873c-0.471-0.137-0.943-0.273-1.414-0.41c-0.471-0.136-0.943-0.273-1.414-0.41
		c-0.029,0.084-0.057,0.168-0.086,0.253c-0.028,0.084-0.057,0.168-0.086,0.252c0.478,0.132,0.922,0.403,1.399,0.545
		C320.321,90.244,320.832,90.257,321.444,89.873z" style="fill: rgb(0, 0, 0);"></path>
	<path class="st0" d="M307.9,195.76c-0.048-0.083-0.112-0.165-0.185-0.237c-0.073-0.072-0.156-0.133-0.241-0.172
		c-0.414-0.189-0.825-0.394-1.241-0.581c-0.417-0.187-0.838-0.356-1.273-0.475c-0.296-0.081-0.624-0.122-0.95-0.122
		c-0.305,0.001-0.608,0.042-0.885,0.119c-0.476-1.256-1.003-2.499-2.161-3.284c-0.68-0.461-1.161-1.108-1.052-2.186
		c0.042-0.411-0.492-0.702-0.952-1.287c-0.173,0.654-0.302,0.9-0.276,1.082c0.165,1.153-0.405,2.264-1.281,3.313
		c-1.229,1.472-2.515,2.909-3.79,4.35c-0.168,0.191-0.45,0.296-0.631,0.482c-0.541,0.559-1.139,1.102-1.567,1.716
		c-0.671,0.963-1.233,1.976-1.822,2.974c-1.557,2.638-2.606,5.306-3.033,8.02c-0.235,1.494,0.392,2.509,1.306,3.234
		c0.712,0.565,1.799,0.255,2.953-0.322c1.37-0.684,2.773-1.089,4.204-1.129c1.048-0.029,2.239-0.496,3.363-0.865
		c0.643-0.212,1.192-0.605,1.611-1.335c1.078-1.876,2.28-3.717,3.442-5.568c0.169-0.269,0.342-0.605,0.585-0.766
		c1.079-0.717,1.094-1.5,0.907-2.256c0.384,0.121,0.838,0.194,1.303,0.202c0.801,0.014,1.6-0.143,1.98-0.48
		c0.256-0.228,0.51-0.458,0.753-0.681c0.243-0.223,0.476-0.439,0.692-0.636c-0.293-0.521-0.584-1.042-0.875-1.561
		C308.49,196.79,308.197,196.274,307.9,195.76z" style="fill: rgb(0, 0, 0);"></path>
	<path class="st0" d="M255.431,107.131c0.575,0.339,1.345,0.389,2.317,0.206c1.195-0.225,2.149-0.764,2.953-1.479
		c0.804-0.716,1.457-1.608,2.048-2.54c0.395-0.623,0.449-1.616,0.292-2.532c-0.157-0.916-0.525-1.755-0.973-2.067
		c-1.22-0.852-2.831-0.962-4.32-0.425c-1.489,0.536-2.857,1.72-3.588,3.453c0.009,0.376-0.024,0.913-0.027,1.519
		c-0.003,0.606,0.024,1.282,0.153,1.938C254.477,106.168,254.856,106.793,255.431,107.131z" style="fill: rgb(0, 0, 0);"></path>
	<path class="st0" d="M355.275,246.455c-0.846-0.716-1.946-1.139-3.078-1.103c-0.521,0.017-0.966,0.139-1.328,0.364
		c-0.363,0.225-0.642,0.554-0.831,0.986c-0.19,0.434-0.256,0.879-0.182,1.306c0.075,0.426,0.292,0.833,0.671,1.19
		c0.235,0.221,0.473,0.44,0.715,0.661c0.242,0.221,0.488,0.446,0.741,0.678c0.546,0.087,1.08,0.203,1.609,0.298
		c0.529,0.095,1.054,0.171,1.578,0.176c0.544,0.006,0.984-0.196,1.276-0.51c0.292-0.315,0.437-0.742,0.389-1.188
		C356.714,248.179,356.121,247.171,355.275,246.455z" style="fill: rgb(0, 0, 0);"></path>
	<path class="st0" d="M399.834,67.781c0.683,0.318,1.449,0.45,2.182,0.38c0.733-0.071,1.433-0.345,1.983-0.838
		c0.204-0.183,0.397-0.471,0.526-0.775c0.129-0.303,0.195-0.624,0.145-0.871c-0.149-0.736-0.561-1.217-1.088-1.577
		c-0.527-0.361-1.169-0.601-1.779-0.856c-0.037-0.016-0.077-0.028-0.116-0.039c-0.04-0.011-0.08-0.019-0.121-0.026
		c-0.559-0.093-1.302,0.094-1.948,0.419c-0.646,0.325-1.194,0.787-1.365,1.245c-0.206,0.553-0.147,1.132,0.132,1.65
		C398.663,67.011,399.161,67.469,399.834,67.781z" style="fill: rgb(0, 0, 0);"></path>
	<path class="st0" d="M236.317,165.412c0.715,0.317,1.503,0.316,2.186,0.062c0.683-0.254,1.26-0.759,1.555-1.451
		c0.267-0.628,0.281-1.225,0.063-1.74c-0.218-0.515-0.667-0.946-1.326-1.244c-0.689-0.311-1.445-0.353-2.104-0.172
		c-0.659,0.181-1.219,0.585-1.515,1.166c-0.282,0.554-0.273,1.277-0.055,1.922C235.339,164.6,235.765,165.168,236.317,165.412z" style="fill: rgb(0, 0, 0);"></path>
	<path class="st0" d="M441.011,107.196c0.378,0.194,0.81,0.33,1.255,0.41c0.445,0.081,0.902,0.107,1.331,0.081
		c0.428-0.026,0.851-0.148,1.306-0.308c0.455-0.16,0.942-0.358,1.499-0.536c-0.371-1.088-0.948-1.766-1.628-2.229
		c-0.68-0.463-1.463-0.711-2.247-0.939c-0.583-0.17-1.202-0.121-1.708,0.082c-0.506,0.203-0.898,0.56-1.03,1.004
		c-0.169,0.57-0.082,1.066,0.156,1.476C440.183,106.648,440.573,106.971,441.011,107.196z" style="fill: rgb(0, 0, 0);"></path>
	<path class="st0" d="M344.019,81.264c0.357,0.384,0.829,0.384,1.292,0.19c0.463-0.193,0.915-0.579,1.233-0.969
		c0.233-0.286,0.4-0.625,0.558-0.995c0.158-0.371,0.305-0.772,0.497-1.184c-0.555-0.326-1.001-0.608-1.401-0.85
		c-0.4-0.242-0.755-0.444-1.126-0.607c-0.454-0.2-1.083-0.15-1.586,0.04c-0.503,0.191-0.878,0.524-0.822,0.893
		c0.093,0.611,0.232,1.268,0.448,1.879C343.327,80.271,343.62,80.835,344.019,81.264z" style="fill: rgb(0, 0, 0);"></path>
	<path class="st0" d="M510.674,133.096c1.204-0.001,2.378-0.117,3.506-0.48c1.129-0.363,2.212-0.971,3.235-1.957
		c-1.887-0.663-3.363-0.891-4.672-0.635c-1.31,0.256-2.453,0.996-3.674,2.27c0.298,0.156,0.573,0.357,0.837,0.519
		C510.17,132.973,510.422,133.096,510.674,133.096z" style="fill: rgb(0, 0, 0);"></path>
	<path class="st0" d="M404.416,111.837c0.194-0.452,0.135-0.925-0.152-1.379c-0.287-0.454-0.803-0.889-1.522-1.266
		c-0.036-0.019-0.074-0.037-0.111-0.054c-0.038-0.018-0.075-0.035-0.112-0.052c-0.646-0.302-1.311-0.41-1.871-0.34
		c-0.561,0.07-1.017,0.32-1.248,0.732c-0.235,0.421-0.154,1.033,0.134,1.615c0.288,0.582,0.783,1.135,1.376,1.437
		c0.666,0.339,1.432,0.423,2.086,0.294C403.651,112.696,404.195,112.352,404.416,111.837z" style="fill: rgb(0, 0, 0);"></path>
	<path class="st0" d="M358.668,195.16c-0.522-0.439-1.09-0.674-1.674-0.732c-0.161-0.016-0.323-0.015-0.486-0.005
		c-0.222-0.447-0.471-0.868-0.803-1.21c-0.999-1.03-2.397-1.681-3.57-2.556c-0.422-0.315-0.687-0.803-1.172-1.392
		c-0.446-0.12-1.394-0.111-1.878-0.561c-0.879-0.816-1.489-1.899-2.198-2.882c-0.788-1.094-1.245-2.513-2.847-2.815
		c-0.937-0.177-1.914-0.271-2.962-0.414c-0.576,1.736-0.613,3.298-1.769,4.899c-0.497,0.688-0.55,1.58-0.841,2.378
		c-1.193,3.276-0.008,5.966-0.549,9.081c-0.036,0.206,0.108,0.386,0.161,0.581c0.572,2.108,0.885,4.374,2.529,5.817
		c0.138,0.121,0.147,0.368,0.235,0.545c0.244,0.492,0.561,0.887,0.925,1.213c0.012,0.187,0.044,0.38,0.104,0.573
		c0.108,0.348,0.286,0.683,0.496,0.92c0.539,0.607,1.22,0.85,1.94,0.764c0.648-0.078,1.325-0.436,1.961-1.022
		c0.123-0.004,0.242-0.002,0.366-0.01c1.403-0.083,2.922-0.619,4.421-1.068c-0.116,0.332-0.21,0.723-0.307,1.177
		c0.518,0.242,1.021,0.519,1.527,0.767c0.506,0.249,1.015,0.469,1.547,0.596c0.281,0.068,0.647,0.016,0.992-0.108
		c0.345-0.124,0.67-0.32,0.868-0.541c0.13-0.145,0.136-0.446,0.079-0.778c-0.057-0.331-0.177-0.692-0.298-0.957
		c-0.289-0.635-0.749-0.929-1.277-1.073c-0.136-0.037-0.277-0.063-0.421-0.083c1.141-0.689,2.012-1.715,2.723-2.961
		c1.092-1.916,1.501-3.702,1.273-5.355c0.836-0.086,1.698-0.421,2.607-1.045c-0.349-0.361-0.639-0.682-0.91-0.969
		C359.192,195.645,358.941,195.39,358.668,195.16z" style="fill: rgb(0, 0, 0);"></path>
	<path class="st0" d="M329.634,64.548c0.28,0.147,0.592,0.241,0.86,0.246c0.762,0.013,1.414-0.267,1.95-0.813
		c0.536-0.545,0.956-1.356,1.254-2.407c-0.942-0.569-1.715-0.56-2.401-0.292c-0.685,0.268-1.283,0.796-1.875,1.264
		c-0.174,0.138-0.335,0.428-0.429,0.72c-0.095,0.291-0.123,0.582-0.031,0.718C329.105,64.201,329.354,64.401,329.634,64.548z" style="fill: rgb(0, 0, 0);"></path>
	<path class="st0" d="M385.747,194.685c0.518,1.044,1.307,1.625,2.266,1.732c0.96,0.107,2.091-0.261,3.296-1.114
		c-0.609-0.924-1.403-1.44-2.342-1.545C388.027,193.653,386.941,193.961,385.747,194.685z" style="fill: rgb(0, 0, 0);"></path>
	<path class="st0" d="M273.217,180.771c-0.375-0.146-0.81-0.176-1.256-0.148c-0.446,0.029-0.904,0.116-1.324,0.204
		c-0.137,0.029-0.284,0.222-0.395,0.459c-0.111,0.236-0.187,0.516-0.18,0.718c0.018,0.542,0.241,0.922,0.573,1.197
		c0.332,0.275,0.773,0.444,1.229,0.566c0.519,0.138,1.007,0.142,1.489-0.042c0.482-0.184,0.959-0.555,1.458-1.167
		c-0.272-0.324-0.508-0.708-0.757-1.042C273.803,181.182,273.541,180.897,273.217,180.771z" style="fill: rgb(0, 0, 0);"></path>
	<path class="st0" d="M288.445,107.114c0.098-0.183,0.088-0.467,0.017-0.756c-0.071-0.288-0.204-0.58-0.35-0.78
		c-0.105-0.142-0.335-0.257-0.583-0.319c-0.248-0.063-0.513-0.072-0.688-0.005c-0.327,0.126-0.647,0.299-0.948,0.502
		c-0.301,0.204-0.584,0.437-0.835,0.686c-0.3,0.296-0.563,0.627-0.837,0.994c-0.274,0.368-0.558,0.771-0.897,1.211
		c0.57,0.004,1.069-0.008,1.531-0.011c0.462-0.003,0.887,0.003,1.309,0.042c0.612,0.057,1.07-0.123,1.431-0.423
		C287.956,107.957,288.22,107.537,288.445,107.114z" style="fill: rgb(0, 0, 0);"></path>
	<path class="st0" d="M358.458,211.397c-0.55-0.273-1.199-0.378-1.843-0.453c-0.16-0.019-0.368,0.095-0.56,0.26
		c-0.192,0.165-0.367,0.379-0.461,0.564c-0.064,0.127-0.053,0.328,0.002,0.531c0.055,0.202,0.154,0.406,0.265,0.538
		c0.452,0.54,1.065,0.808,1.739,0.808c0.674,0.001,1.41-0.266,2.108-0.792C359.46,212.108,359.008,211.669,358.458,211.397z" style="fill: rgb(0, 0, 0);"></path>
	<path class="st0" d="M268.221,247.976c-0.139,0.081-0.364,0.164-0.593,0.277c-0.229,0.114-0.461,0.258-0.613,0.463
		c-0.313,0.421-0.387,0.827-0.251,1.188c0.135,0.362,0.48,0.68,1.004,0.929c0.364,0.173,0.719,0.282,1.034,0.236
		c0.315-0.046,0.589-0.248,0.792-0.697c0.169-0.375,0.133-0.822-0.099-1.252C269.263,248.692,268.835,248.28,268.221,247.976z" style="fill: rgb(0, 0, 0);"></path>
	<path class="st0" d="M391.98,20c-1.293,0.199-2.085,0.409-2.68,0.876c-0.595,0.467-0.993,1.191-1.498,2.419
		c0.826-0.349,1.694-0.647,2.444-1.12C390.997,21.701,391.629,21.052,391.98,20z" style="fill: rgb(0, 0, 0);"></path>
	<path class="st0" d="M359.014,118.703c0.58-0.2,0.989-0.813,1.364-1.871c-1.06-0.249-1.613-0.367-2.094-0.204
		c-0.481,0.162-0.889,0.605-1.661,1.475C357.683,118.693,358.434,118.904,359.014,118.703z" style="fill: rgb(0, 0, 0);"></path>
	<path class="st0" d="M401.521,127.513c-0.731,0.237-1.4,0.733-2.024,1.587c1.24,0.302,2.087,0.364,2.753,0.117
		c0.666-0.247,1.15-0.802,1.665-1.735C403.044,127.299,402.252,127.276,401.521,127.513z" style="fill: rgb(0, 0, 0);"></path>
	<path class="st0" d="M332.281,136.57c-0.848-0.639-1.323-0.961-1.802-0.967c-0.479-0.006-0.961,0.303-1.824,0.926
		c1.048,0.689,1.572,1.034,2.025,1.04C331.134,137.574,331.516,137.24,332.281,136.57z" style="fill: rgb(0, 0, 0);"></path>
	<path class="st0" d="M314.01,182.804c-0.365-0.25-0.752-0.237-1.173,0.035c-0.151,0.098-0.292,0.302-0.384,0.525
		c-0.093,0.223-0.14,0.467-0.104,0.645c0.095,0.471,0.322,0.727,0.749,0.78c0.427,0.053,1.055-0.096,1.951-0.434
		C314.718,183.569,314.375,183.054,314.01,182.804z" style="fill: rgb(0, 0, 0);"></path>
	<path class="st0" d="M320.608,105.7c-0.204,0.169-0.395,0.355-0.565,0.551c-0.038,0.044,0.028,0.234,0.118,0.412
		c0.089,0.178,0.201,0.343,0.253,0.337c0.305-0.034,0.629-0.065,0.937-0.129c0.308-0.064,0.601-0.16,0.846-0.319
		c0.178-0.116,0.29-0.332,0.413-0.636c0.123-0.304,0.256-0.697,0.476-1.167c-0.533,0.14-0.906,0.217-1.188,0.283
		c-0.282,0.066-0.473,0.121-0.639,0.217C321.031,105.379,320.813,105.531,320.608,105.7z" style="fill: rgb(0, 0, 0);"></path>
	<path class="st0" d="M365.386,211.427c-0.374-0.127-0.818-0.072-1.272,0.063c-0.115,0.034-0.193,0.192-0.261,0.382
		c-0.068,0.191-0.126,0.414-0.201,0.581c0.331,0.084,0.661,0.176,0.992,0.261c0.331,0.085,0.663,0.162,0.999,0.217
		c0.075,0.012,0.164-0.057,0.264-0.155c0.1-0.098,0.212-0.225,0.334-0.328C366.064,211.861,365.76,211.554,365.386,211.427z" style="fill: rgb(0, 0, 0);"></path>
	<path class="st0" d="M436.056,263.255c0.554,0.805,0.831,1.207,1.28,1.311c0.449,0.103,1.07-0.093,2.311-0.484
		c-0.729-0.291-1.305-0.675-1.859-0.898C437.233,262.961,436.699,262.9,436.056,263.255z" style="fill: rgb(0, 0, 0);"></path>
	<path class="st0" d="M238.635,185.217c-0.087,0.103-0.088,0.359-0.033,0.615c0.054,0.256,0.164,0.511,0.296,0.609
		c0.493,0.365,0.905,0.422,1.261,0.235c0.356-0.187,0.658-0.617,0.931-1.225c-0.449-0.375-0.871-0.66-1.276-0.737
		C239.409,184.636,239.019,184.766,238.635,185.217z" style="fill: rgb(0, 0, 0);"></path>
	<path class="st0" d="M444.843,116.232c0.019,0.094,0.038,0.188,0.057,0.283c0.019,0.094,0.038,0.189,0.057,0.283
		c0.54-0.113,1.081-0.226,1.622-0.339c0.541-0.113,1.081-0.226,1.622-0.339c-0.659-0.484-1.258-0.667-1.813-0.623
		C445.833,115.541,445.324,115.81,444.843,116.232z" style="fill: rgb(0, 0, 0);"></path>
	<path class="st0" d="M435.756,208.065c-0.453,0.018-0.831,0.384-1.555,1.112c0.714-0.027,1.337-0.052,1.915-0.074
		c0.578-0.022,1.111-0.043,1.644-0.064C436.736,208.377,436.209,208.048,435.756,208.065z" style="fill: rgb(0, 0, 0);"></path>
	<path class="st0" d="M506.061,115.146c-0.037-0.1-0.074-0.199-0.111-0.298c-0.037-0.099-0.074-0.199-0.111-0.298
		c-0.543-0.032-1.111-0.126-1.626,0.031c-0.515,0.157-0.978,0.567-1.311,1.54c0.632-0.195,1.185-0.365,1.698-0.524
		C505.113,115.438,505.586,115.291,506.061,115.146z" style="fill: rgb(0, 0, 0);"></path>
	<path class="st0" d="M284.352,116.232c-0.307,0.173-0.592,0.303-0.84,0.435c-0.248,0.131-0.458,0.264-0.617,0.443
		c-0.072,0.081-0.041,0.254,0.018,0.452c0.059,0.197,0.147,0.42,0.187,0.601c0.279-0.101,0.562-0.194,0.84-0.297
		c0.278-0.102,0.552-0.214,0.811-0.353c0.029-0.015-0.021-0.18-0.104-0.419C284.565,116.855,284.451,116.543,284.352,116.232z" style="fill: rgb(0, 0, 0);"></path>
	<path class="st0" d="M392.893,244.111c-0.403-0.17-0.901-0.133-1.521,0.138c0.262,0.664,0.659,0.896,1.103,0.965
		c0.443,0.07,0.931-0.021,1.373-0.002C393.604,244.657,393.296,244.281,392.893,244.111z" style="fill: rgb(0, 0, 0);"></path>
	<path class="st0" d="M283.047,127.815c0.257-0.02,0.518-0.052,0.773-0.106c0.255-0.054,0.503-0.13,0.732-0.239
		c0.048-0.022,0.027-0.193-0.019-0.444c-0.046-0.251-0.117-0.583-0.167-0.928c-0.338,0.186-0.629,0.33-0.884,0.468
		c-0.255,0.138-0.473,0.27-0.665,0.433c-0.048,0.041-0.006,0.246,0.055,0.44C282.934,127.634,283.015,127.818,283.047,127.815z" style="fill: rgb(0, 0, 0);"></path>
	<path class="st0" d="M336.766,109.999c0.548,0.162,0.993,0.126,1.328-0.135c0.335-0.261,0.559-0.747,0.663-1.483
		c-0.382,0.158-0.764,0.316-1.146,0.474c-0.382,0.159-0.764,0.317-1.146,0.475c0.05,0.111,0.1,0.223,0.15,0.334
		C336.666,109.776,336.716,109.887,336.766,109.999z" style="fill: rgb(0, 0, 0);"></path>
	<path class="st0" d="M379.793,287c0.343,0.673,0.514,1.009,0.785,1.136c0.271,0.126,0.641,0.043,1.382-0.125
		c-0.471-0.22-0.86-0.401-1.207-0.563C380.406,287.286,380.099,287.143,379.793,287z" style="fill: rgb(0, 0, 0);"></path>
	<path class="st0" d="M398.514,240.262c-0.023,0.09-0.047,0.181-0.07,0.272c-0.023,0.09-0.047,0.182-0.07,0.272
		c0.642,0.421,0.963,0.632,1.277,0.627c0.314-0.005,0.62-0.225,1.232-0.666c-0.483-0.103-0.9-0.192-1.283-0.273
		S398.865,240.337,398.514,240.262z" style="fill: rgb(0, 0, 0);"></path>
	<path class="st0" d="M452.342,193.802c0.491-0.025,1.041-0.053,1.712-0.087c-0.672-0.511-1.226-0.846-1.726-0.946
		c-0.5-0.1-0.948,0.035-1.408,0.463c0.012,0.107,0.023,0.213,0.035,0.319c0.012,0.106,0.024,0.213,0.035,0.319
		C451.421,193.848,451.851,193.827,452.342,193.802z" style="fill: rgb(0, 0, 0);"></path>
	<path class="st0" d="M439.017,234.424c-0.01,0.112-0.02,0.225-0.03,0.338c-0.01,0.113-0.021,0.225-0.031,0.338
		c0.304,0.229,0.608,0.392,0.981,0.362c0.373-0.03,0.816-0.252,1.398-0.795c-0.559-0.059-0.988-0.103-1.353-0.142
		C439.618,234.487,439.317,234.455,439.017,234.424z" style="fill: rgb(0, 0, 0);"></path>
	<path class="st0" d="M387.417,99.764c0.368-0.117,0.662-0.42,0.905-0.993c-0.526-0.154-0.952-0.19-1.316-0.061
		c-0.364,0.129-0.666,0.424-0.943,0.935C386.605,99.813,387.048,99.881,387.417,99.764z" style="fill: rgb(0, 0, 0);"></path>
	<path class="st0" d="M342.545,113.2c-0.424,0.096-0.784,0.178-1.149,0.261c-0.365,0.083-0.736,0.167-1.18,0.268
		c0.744,0.486,1.116,0.73,1.407,0.663C341.913,114.326,342.124,113.951,342.545,113.2z" style="fill: rgb(0, 0, 0);"></path>
	<path class="st0" d="M410.535,93.749c-0.016-0.104-0.032-0.208-0.048-0.313c-0.016-0.104-0.032-0.209-0.048-0.313
		c-0.358-0.208-0.695-0.317-1.046-0.21c-0.35,0.108-0.714,0.433-1.126,1.091c0.521-0.059,0.934-0.105,1.294-0.146
		C409.922,93.818,410.228,93.784,410.535,93.749z" style="fill: rgb(0, 0, 0);"></path>
	<path class="st0" d="M389.626,230.894c-0.363-0.141-0.775-0.138-1.292,0.035c0.254,0.522,0.527,0.855,0.886,0.991
		c0.36,0.135,0.807,0.074,1.41-0.195C390.305,231.322,389.99,231.036,389.626,230.894z" style="fill: rgb(0, 0, 0);"></path>
	<path class="st0" d="M281.097,151.812c0.202,0,0.405-0.04,0.638-0.1c0.234-0.06,0.498-0.141,0.826-0.221
		c-0.156-0.227-0.282-0.449-0.384-0.613c-0.102-0.164-0.179-0.269-0.239-0.259c-0.202,0.031-0.399,0.103-0.593,0.187
		c-0.194,0.084-0.387,0.181-0.581,0.262c0.056,0.131,0.111,0.316,0.166,0.469C280.986,151.691,281.042,151.812,281.097,151.812z" style="fill: rgb(0, 0, 0);"></path>
	<path class="st0" d="M324.462,240.979c-0.066,0.124-0.132,0.247-0.199,0.372c-0.066,0.123-0.133,0.248-0.199,0.371
		c0.217,0.101,0.433,0.202,0.65,0.303c0.217,0.101,0.434,0.202,0.65,0.303c0.051-0.093,0.102-0.186,0.152-0.28
		c0.051-0.093,0.102-0.187,0.152-0.279c-0.201-0.132-0.402-0.263-0.604-0.395C324.865,241.242,324.664,241.11,324.462,240.979z" style="fill: rgb(0, 0, 0);"></path>
	<path class="st0" d="M447.178,148.562c0.311-0.046,0.621-0.092,0.932-0.138c-0.011-0.109-0.023-0.219-0.034-0.328
		c-0.011-0.109-0.023-0.219-0.034-0.328c-0.31,0.011-0.62,0.022-0.93,0.034c-0.31,0.011-0.62,0.023-0.93,0.034
		c0.011,0.144,0.022,0.288,0.032,0.432c0.011,0.144,0.021,0.288,0.032,0.433C446.557,148.654,446.868,148.608,447.178,148.562z" style="fill: rgb(0, 0, 0);"></path>
	<path class="st0" d="M321.771,221.428c-0.041,0.128-0.083,0.256-0.124,0.384c-0.042,0.128-0.083,0.256-0.124,0.384
		c0.265,0.058,0.53,0.116,0.794,0.174c0.265,0.058,0.53,0.116,0.794,0.174c0.025-0.092,0.05-0.184,0.075-0.275
		c0.025-0.092,0.05-0.184,0.075-0.275c-0.248-0.094-0.497-0.188-0.745-0.282C322.268,221.617,322.019,221.523,321.771,221.428z" style="fill: rgb(0, 0, 0);"></path>
	<path class="st0" d="M338.982,135.465c-0.009-0.072-0.019-0.145-0.028-0.217c-0.009-0.072-0.019-0.144-0.028-0.216
		c-0.19,0.013-0.381,0.021-0.57,0.034c-0.19,0.014-0.378,0.033-0.564,0.068c-0.018,0.003-0.019,0.102-0.015,0.226
		c0.004,0.124,0.013,0.274,0.014,0.38c0.199-0.046,0.397-0.092,0.596-0.138C338.585,135.557,338.783,135.511,338.982,135.465z" style="fill: rgb(0, 0, 0);"></path>
	<path class="st0" d="M324.295,158.59c0.115,0.026,0.258-0.015,0.398-0.086c0.14-0.071,0.278-0.173,0.384-0.268
		c0.036-0.032,0.023-0.171-0.014-0.304c-0.036-0.134-0.095-0.263-0.149-0.278c-0.138-0.037-0.287-0.038-0.467-0.026
		c-0.18,0.012-0.391,0.037-0.655,0.049c0.114,0.222,0.194,0.44,0.268,0.607C324.137,158.452,324.205,158.569,324.295,158.59z" style="fill: rgb(0, 0, 0);"></path>
	<path class="st0" d="M318.54,131.607c0.323-0.04,0.601-0.074,0.855-0.105c0.255-0.031,0.486-0.06,0.718-0.088
		c-0.421-0.401-0.632-0.602-0.828-0.578C319.088,130.86,318.906,131.109,318.54,131.607z" style="fill: rgb(0, 0, 0);"></path>
	<path class="st0" d="M283.426,85.151c0.109-0.171,0.217-0.342,0.326-0.512c0.109-0.171,0.217-0.341,0.325-0.512
		c-0.089-0.048-0.208-0.123-0.31-0.182c-0.102-0.059-0.185-0.102-0.202-0.084c-0.126,0.139-0.239,0.289-0.347,0.444
		c-0.109,0.155-0.212,0.313-0.32,0.468c0.088,0.063,0.176,0.126,0.264,0.189C283.25,85.025,283.338,85.088,283.426,85.151z" style="fill: rgb(0, 0, 0);"></path>
	<path class="st0" d="M423.788,240.522c-0.029,0.086-0.058,0.172-0.086,0.257c-0.029,0.086-0.058,0.172-0.087,0.257
		c0.219,0.077,0.438,0.155,0.658,0.232c0.219,0.077,0.438,0.154,0.658,0.232c0.033-0.102,0.065-0.204,0.098-0.305
		c0.032-0.102,0.065-0.204,0.097-0.305c-0.223-0.061-0.446-0.122-0.668-0.183C424.234,240.644,424.011,240.583,423.788,240.522z" style="fill: rgb(0, 0, 0);"></path>
	<path class="st0" d="M222.491,201.661c-0.095,0.055-0.171,0.114-0.184,0.184c-0.015,0.081,0.025,0.173,0.086,0.277
		c0.061,0.104,0.142,0.218,0.208,0.346c0.119-0.065,0.224-0.123,0.322-0.177c0.098-0.054,0.189-0.104,0.28-0.154
		c-0.07-0.107-0.14-0.214-0.211-0.32c-0.07-0.107-0.14-0.213-0.21-0.32C222.698,201.554,222.585,201.606,222.491,201.661z" style="fill: rgb(0, 0, 0);"></path>
	<path class="st0" d="M389.142,126.861c-0.228,0.104-0.336,0.328-0.552,0.777c0.308-0.141,0.567-0.259,0.848-0.388
		c0.281-0.129,0.584-0.267,0.977-0.447C389.719,126.772,389.371,126.757,389.142,126.861z" style="fill: rgb(0, 0, 0);"></path>
	<path class="st0" d="M298.234,136.703c0.212-0.216,0.389-0.373,0.53-0.51c0.141-0.137,0.247-0.254,0.318-0.389
		c0.038-0.072,0.017-0.222-0.021-0.354c-0.038-0.131-0.094-0.245-0.124-0.246c-0.137-0.003-0.28,0.011-0.419,0.042
		c-0.139,0.032-0.273,0.081-0.391,0.148c-0.038,0.021-0.032,0.118-0.006,0.326C298.147,135.927,298.192,136.243,298.234,136.703z" style="fill: rgb(0, 0, 0);"></path>
	<path class="st0" d="M417.848,255.716c-0.018,0.069-0.035,0.137-0.053,0.205c-0.018,0.068-0.036,0.137-0.053,0.204
		c0.219,0.086,0.439,0.172,0.658,0.258c0.22,0.086,0.439,0.172,0.658,0.258c0.036-0.111,0.071-0.223,0.107-0.334
		c0.035-0.111,0.071-0.223,0.107-0.334c-0.237-0.043-0.474-0.085-0.711-0.128C418.322,255.802,418.085,255.76,417.848,255.716z" style="fill: rgb(0, 0, 0);"></path>
	<path class="st0" d="M453.041,100.177c0.237-0.106,0.475-0.213,0.712-0.319c0.237-0.107,0.475-0.213,0.712-0.32
		c-0.029-0.063-0.057-0.126-0.086-0.188c-0.029-0.063-0.058-0.126-0.086-0.189c-0.237,0.106-0.475,0.213-0.712,0.319
		c-0.238,0.106-0.475,0.213-0.712,0.319c0.029,0.063,0.058,0.126,0.086,0.189C452.984,100.051,453.012,100.114,453.041,100.177z" style="fill: rgb(0, 0, 0);"></path>
	<path class="st0" d="M232.396,179.027c0.017,0.029,0.116,0.012,0.249-0.022c0.133-0.033,0.3-0.081,0.453-0.113
		c-0.053-0.136-0.086-0.275-0.123-0.39c-0.037-0.115-0.079-0.206-0.15-0.248c-0.079-0.046-0.185-0.047-0.299-0.035
		s-0.234,0.037-0.343,0.042c0.031,0.13,0.052,0.266,0.081,0.397C232.294,178.79,232.332,178.916,232.396,179.027z" style="fill: rgb(0, 0, 0);"></path>
	<path class="st0" d="M283.042,120.09c0.067,0.045,0.171,0.035,0.285,0.01c0.114-0.026,0.238-0.066,0.346-0.083
		c-0.028-0.132-0.056-0.264-0.084-0.397c-0.028-0.132-0.056-0.264-0.084-0.397c-0.107,0.029-0.214,0.058-0.328,0.089
		c-0.114,0.031-0.236,0.064-0.373,0.101c0.043,0.138,0.067,0.283,0.097,0.405C282.932,119.942,282.97,120.041,283.042,120.09z" style="fill: rgb(0, 0, 0);"></path>
	<path class="st0" d="M365.19,171.66c0.402-1.619,0.779-3.355,0.552-4.782c-0.3-1.892-1.439-3.11-3.804-3.189
		c-1.737-0.058-3.231-0.823-4.812-1.31c-1.43-0.441-2.818-0.954-4.25-1.393c-0.983-0.301-1.972-0.611-3.026-0.767
		c-0.87-0.129-1.862,0.081-2.773,0.78c-1.718,1.316-3.591,1.681-5.409,2.375c-0.24,0.091-0.501-0.022-0.788-0.044
		c1.88-4.46,3.898-8.76,6.644-12.9c0.232-0.35,0.597-0.682,0.949-0.943c2.022-1.5,2.696-3.814,1.551-5.262
		c-0.658-0.832-1.288-1.693-1.831-2.612c-0.599-1.012-1.454-1.72-2.713-1.932c-0.971-0.163-1.388-0.705-1.436-1.651
		c-0.022-0.427-0.127-0.835-0.263-1.212c-0.451-1.25-1.984-1.93-3.355-1.591c-0.881,0.217-1.757,0.344-2.636,0.515
		c-0.511,0.099-1.022,0.205-1.619,0.325c0.076,0.666,0.133,1.172,0.204,1.803c-0.357,0.13-0.635,0.225-0.911,0.334
		c-0.634,0.248-0.94,0.669-0.979,1.262c-0.136,2.092-0.303,4.18-0.054,6.173c0.235,1.877,0.293,3.809-0.493,5.976
		c-1.103,3.043-2.022,6.096-2.975,9.145c-0.498,1.593-0.899,3.186-1.355,4.822c-2.301,0.417-4.422,0.845-6.527,1.173
		c-2.757,0.429-5.502,0.778-8.253,1.165c-0.704,0.099-1.413,0.219-2.115,0.309c-2.807,0.359-5.611,0.697-8.421,1.07
		c-1.563,0.207-2.595-0.177-2.918-1.613c-0.119-0.528-0.254-1.243-1.169-1.129c-1.576,2.354-1.501,4.619-1.895,6.845
		c-0.4,2.254-0.3,4.439-0.42,6.654c-0.045,0.833-0.177,1.695-0.119,2.491c0.065,0.892-0.013,2.048,0.531,2.507
		c0.884,0.747,2.047,1.362,3.785,0.574c1.048-0.475,2.147-0.93,3.192-1.132c4.846-0.938,9.68-2.353,14.519-4.357
		c0.29-0.12,0.594-0.133,0.89-0.233c1.359-0.46,2.716-0.947,4.075-1.393c0.432-0.142,0.868-0.189,1.525-0.326
		c-1.88,6.706-3.696,13.18-5.478,19.538c-0.632,0.283-1.092,0.488-1.617,0.724c0.396,0.665,0.688,1.155,1.026,1.721
		c-1.683,1.24-1.848,2.608-1.879,3.984c-0.012,0.52,0.147,1.024,0.003,1.545c-0.998,3.622-2.224,7.254-2.628,10.836
		c-0.218,1.931,0.742,3.758,2.494,4.145c0.487,0.108,1.195,0.13,1.673-0.149c1.421-0.831,2.801-1.186,4.218-1.367
		c0.22-0.027,0.485-0.162,0.699-0.305c2.983-1.998,5.456-4.27,5.308-7.747c-0.06-1.404-0.275-2.762-0.245-4.19
		c0.019-0.893,0.055-1.791,0.085-2.687c0.364,0.12,0.9,0.018,1.946-0.189c-0.486-0.985-0.734-1.479-1.101-1.62
		c-0.203-0.077-0.453-0.039-0.789,0.076c0.064-1.444,0.147-2.893,0.254-4.347c0.049-0.664,0.243-1.371,0.413-2.067
		c0.353,0.381,0.672,0.66,1.001,0.787c0.365,0.14,0.745,0.102,1.207-0.167c-0.161-0.712-0.432-1.043-0.817-1.123
		c-0.351-0.073-0.803,0.069-1.348,0.315c0.149-0.63,0.266-1.248,0.222-1.81c-0.119-1.48,0.695-2.922,1.129-4.334
		c1.042-3.389,2.446-6.784,3.707-10.176c0.701-1.884,1.408-3.767,2.145-5.737c0.73-0.031,1.402-0.508,2.159-0.043
		c0.564,0.345,1.905-0.289,2.888-0.425c2.321-0.321,4.609-0.388,6.095,0.933c1.28,1.139,3.008,1.565,4.594,2.209
		c1.54,0.625,3.266,0.833,5.243-0.867c0.38-0.327,0.908-0.478,1.37-0.703c1.044-0.509,2.128-0.928,3.12-1.552
		C364.077,172.957,365.052,172.214,365.19,171.66z" style="fill: rgb(0, 0, 0);"></path>
	<path class="st0" d="M233.689,187.434c1.712-1.204,3.54-2.303,5.242-2.813c2.914-0.873,5.08-3.075,7.857-4.462
		c-0.425-0.362-0.794-0.509-0.886-0.805c-0.08-0.26,0.151-0.687,0.245-1.045c-5.432,1.29-10.766,2.382-16.109,3.875
		c-5.312,1.483-10.632,3.368-15.916,5.067c-0.052-0.31-0.124-0.425-0.078-0.505c1.344-2.3,2.42-4.712,4.554-6.681
		c1.29-1.189,2.496-4.141,2.178-5.249c-0.529-1.845-1.567-3.25-3.13-4.291c-1.383-0.921-3.011-1.578-3.967-2.993
		c-0.403-0.596-1.131-0.938-1.542-1.528c-0.79-1.135-2.123-1.824-2.409-3.383c-0.168-0.917-1.861-1.515-2.928-1.212
		c-1.06,0.3-1.603,0.922-1.992,2.537c-0.33,1.369-0.344,2.729-0.794,4.09c-1.336,4.037-1.318,7.941-2.776,11.987
		c-0.621,1.724-0.99,3.457-1.52,5.186c-1.268,4.142-2.522,8.284-3.859,12.426c-1.07,3.313-1.628,6.674-3.943,9.896
		c-0.326,0.454-0.503,1.04-0.584,1.54c-0.332,2.036-0.652,4.073-0.876,6.089c-0.199,1.793-0.222,3.551-0.405,5.341
		c-0.113,1.104-0.008,2.06,0.548,2.857c1.669,2.394,4.156,3.722,7.342,4.194c1.617,0.239,3.279,0.381,5.084-0.331
		c0.058-0.023,0.115-0.045,0.172-0.068c-0.484,0.311-0.81,0.695-0.95,1.176c-0.172,0.595-0.075,1.333,0.309,2.247
		c0.61-0.512,1.236-0.915,1.652-1.395c0.416-0.481,0.622-1.038,0.391-1.86c-0.031-0.11-0.231-0.234-0.454-0.316
		c-0.126-0.046-0.252-0.072-0.366-0.081c1.741-0.685,3.474-1.35,5.234-1.812c0.693-0.182,1.395-0.665,2.097-0.992
		c1.561-0.727,3.158-1.342,4.676-2.191c1.694-0.949,3.33-2.082,4.967-3.183c1.668-1.121,2.692-3.068,4.623-3.889
		c0.184-0.078,0.343-0.375,0.494-0.581c1.294-1.759,1.968-3.78,3.686-5.375c0.262-0.243,0.383-0.781,0.382-1.126
		c-0.003-1.064-0.001-2.165-1.429-2.173c-0.2-0.001-0.34-0.188-0.502-0.285c0.051-0.613,0.099-1.187,0.158-1.899
		c-0.685,0.469-1.178,0.798-1.663,1.141c-2.775,1.964-5.712,3.326-8.701,3.948c-3.666,0.762-7.372,2.047-11.014,2.386
		c-1.136,0.106-2.12,0.095-3.125-0.161c0.633-2.9,2.171-5.62,3.462-8.441c1.309-0.101,2.48-0.499,3.343-1.852
		c0.181-0.282,0.6-0.527,0.935-0.694c1.561-0.783,3.131-1.529,4.696-2.297c2.665-1.308,5.322-2.65,7.993-3.928
		C227.477,191.9,230.577,189.623,233.689,187.434z" style="fill: rgb(0, 0, 0);"></path>
	<path class="st0" d="M427.615,172.732c1.521-0.264,2.517-1.264,3.296-2.533c0.536-0.873,0.931-1.793,1.403-2.688
		c1.962-3.723,0.241-6.226-0.362-9.098c-0.019-0.092-0.113-0.171-0.204-0.205c-1.081-0.405-1.347-1.502-1.929-2.335
		c-0.976-1.397-1.945-2.802-3.013-4.123c-0.704-0.872-1.304-1.777-1.695-2.885c-0.292-0.828-0.872-1.532-1.496-2.121
		c-1.477-1.393-3.527-1.995-5.682-2.418c-0.921-0.181-1.391,0.058-1.872,1.036c-0.245,0.496-0.413,1.049-0.445,1.535
		c-0.088,1.343-0.057,2.658-1.461,3.932c-0.164,0.15-0.177,0.451-0.286,0.677c-0.514,1.069-0.79,2.103-0.95,3.119
		c-0.134-0.033-0.274-0.05-0.405-0.092c-1.18-0.373-2.249-0.453-3.238-0.241c-0.989,0.213-1.898,0.718-2.759,1.516
		c0.118,0.659,0.352,1.139,0.7,1.448c0.348,0.309,0.81,0.448,1.387,0.426c0.528-0.02,1.073-0.019,1.607-0.054
		c0.533-0.036,1.056-0.11,1.54-0.281c0.324-0.115,0.642-0.246,0.961-0.377c-0.019,0.541-0.027,1.081-0.04,1.621
		c-0.013,0.547,0.01,1.092-0.09,1.653c-0.896,4.996-2.794,9.993-4.763,14.994c-0.084,0.213-0.164,0.426-0.248,0.638
		c-0.697-0.39-1.142-0.579-1.465-0.511c-0.407,0.086-0.641,0.564-1.012,1.508c0.544-0.026,1.054-0.049,1.549-0.072
		c0.198-0.009,0.387-0.018,0.58-0.027c-1.859,4.763-3.661,9.531-5.539,14.292c-0.853,2.162-1.353,4.33-2.817,6.473
		c-5.585,8.175-11.739,16.018-18.464,23.534c-1.106,1.236-2.305,2.271-3.588,3.098c-1.225-0.201-2.426-0.13-3.172,0.333
		c-0.555,0.344-0.821,0.817-0.802,1.32c0.001,0.033,0.014,0.067,0.018,0.101c-0.393,0.1-0.792,0.183-1.198,0.246
		c-0.267,0.041-0.579,0.358-1.272,0.807c1.214-0.067,2.062-0.114,2.866-0.158c0.041,0.053,0.075,0.106,0.122,0.158
		c-0.203,0.902-1.509,1.716-0.617,2.596c1.443-0.368,2.971-0.749,4.511-1.156c0.011,0,0.022,0.003,0.034,0.003
		c1.38,0.036,2.83-0.264,3.98-0.923c-0.048-0.168-0.084-0.353-0.13-0.538c0.807-0.439,1.525-0.691,2.05-0.069
		c0.754-0.501,1.393-1.074,2.071-1.348c1.784-0.719,3.429-1.732,5.104-2.796c1.736-1.103,3.212-2.588,5.034-3.573
		c1.758-0.95,3.458-2.132,5.122-3.318c1.051-0.749,2.094-1.513,3.135-2.279c0.35,1.285,1.212,2.182,2.295,2.587
		c1.227,0.46,2.735,0.289,4.098-0.66c-0.085-0.135-0.155-0.299-0.235-0.446c-0.079-0.147-0.168-0.279-0.291-0.351
		c-1.155-0.671-2.31-1.342-3.472-2.001c-0.233-0.133-0.471-0.256-0.705-0.387c0.925-0.692,1.85-1.384,2.767-2.089
		c1.654-1.27,3.136-2.695,3.908-4.604c0.298-0.735,0.726-1.493,1.236-2.167c0.519-0.686,0.612-1.311,0.785-2.001
		c0.516-2.056,1.056-4.119,1.727-6.179c0.169-0.518,0.355-1.036,0.548-1.554c0.003,0.001,0.005,0.002,0.007,0.003
		c0.463,0.053,1.05-0.182,2.223-0.649c-0.583-0.421-1.115-0.73-1.638-0.875c0.281-0.696,0.569-1.392,0.861-2.086
		c1.081-2.572,2.128-5.156,3.372-7.7c1.241-2.539,2.707-5.036,4.074-7.551C425.772,173.872,426.427,172.939,427.615,172.732z" style="fill: rgb(0, 0, 0);"></path>
	<path class="st0" d="M111.8,226.232c-1.168-1.732-2.192-3.577-3.223-5.411c-0.551-0.981-1.077-1.993-1.462-3.077
		c-0.75-2.109-1.293-4.281-2.527-6.162c-1.669-2.544-2.648-5.62-3.849-8.514c-1.087-2.62-1.934-5.392-3.143-7.929
		c-1.162-2.437-2.553-4.738-4.037-6.949c-0.965-1.437-2.266-2.618-3.442-3.891c-0.755-0.816-1.454-1.709-2.378-2.334
		c-0.471-0.318-0.793-0.655-1.031-1.149c-0.532-1.101-1.109-2.173-1.695-3.238c-0.114-0.206-0.306-0.437-0.544-0.462
		c-0.831-0.09-0.985-0.743-1.241-1.338c-0.175-0.408-0.353-0.83-0.64-1.148c-1.749-1.939-3.164-1.422-4.802,1.628
		c-1.113,2.072-1.208,4.01-1.319,5.947c-0.106,1.854-0.502,3.685-1.18,5.618c-0.484,1.378-0.494,2.827-0.437,4.151
		c0.053,1.22,0.456,2.327,0.75,3.461c0.125,0.482,0.238,1.043,0.585,1.327c0.603,0.493,0.934,1.087,0.974,1.941
		c0.017,0.358,0.17,0.74,0.423,0.934c0.789,0.605,0.897,1.555,0.949,2.577c0.027,0.525,0.13,1.063,0.374,1.467
		c0.508,0.841,1.142,1.591,0.928,2.823c1.211,1.534,1.437,3.724,2.467,5.329c1.235,1.925,2.296,3.944,3.253,6.047
		c1.022,2.245,1.902,4.59,3.097,6.713c0.757,1.345,1.285,2.774,1.642,4.33c0.056,0.246,0.212,0.445,0.322,0.665
		c0.885,1.755,1.881,3.443,2.618,5.286c0.527,1.317,1.404,2.355,2.024,3.571c0.887,1.742,2.118,3.091,3.71,4.161
		c1.554,1.046,3.211,1.919,5.46,2.026c0.874-0.254,1.763-0.419,2.62-0.781c1.232-0.52,2.441-1.185,3.661-1.784
		c2.242-1.099,3.478-2.778,4.374-4.959c0.605-1.474,0.433-2.66,0.556-3.969c0.147-1.574-0.256-2.837-1.172-3.842
		C113.555,228.296,112.558,227.355,111.8,226.232z" style="fill: rgb(0, 0, 0);"></path>
	<path class="st0" d="M493.664,178.815c-1.054-1.591-2.364-2.815-4.482-3.162c-0.844-0.138-1.161-0.667-0.684-1.763
		c-1.363,1.051-2.103,0.172-3.153,0.422c-1.082,0.258-2.185,0.137-2.735-0.692c-0.46,0.242-0.865,0.573-1.195,0.598
		c-0.343,0.026-0.614-0.243-0.964-0.404c-1.305,0.95-2.536,1.846-3.9,2.839c-1.039,0.12-2.263,0.237-3.496,0.406
		c-3.341,0.46-6.707,1.044-10.022,1.39c-4.605,0.481-9.214,1.034-13.909,2.06c-1.125,0.246-2.249,0.45-3.363,0.616
		c-3.64,0.544-7.27,1.021-10.916,1.601c-2.551,0.406-4.961,0.656-5.927-1.678c-0.032-0.079-0.155-0.103-0.122-0.083
		c-0.615,0.124-1.105,0.223-1.722,0.347c-0.135,0.256-0.299,0.445-0.301,0.588c-0.02,1.321-0.104,2.634-1.04,4.015
		c-0.131,0.193-0.137,0.461-0.142,0.678c-0.092,3.653,0.753,6.933,1.316,10.324c0.037,0.221,0.31,0.367,0.525,0.479
		c1.19,0.618,2.351,0.362,3.85-0.783c0.242-0.185,0.55-0.317,0.825-0.393c1.236-0.339,2.47-0.609,3.705-0.979
		c1.542-0.461,3.093-1.112,4.624-1.465c1.885-0.434,3.772-0.737,5.623-0.933c3.469-0.367,6.965-1.434,10.475-2.532
		c1.03-0.323,2.062-0.489,3.235-0.759c-0.614,2.747-2.289,5.021-3.961,7.159c-6.123,7.832-12.897,14.97-22.38,19.085
		c1.154,0.204,2.285-0.93,3.379-0.458c-0.917,0.691-1.686,1.272-2.445,1.844c0.046,0.124,0.049,0.256,0.122,0.3
		c0.122,0.072,0.28,0.112,0.44,0.123c1.46,0.093,2.993-0.402,4.493-1.013c1.873-0.763,3.715-1.785,5.591-2.5
		c1.613-0.614,3.253-0.953,4.881-1.417c0.88-0.251,1.808-0.354,2.631-0.796c1.53-0.822,3.015-1.811,4.49-2.788
		c1.7-1.125,3.314-2.503,5.066-3.423c2.255-1.184,3.883-3.043,5.605-4.733c1.764-1.732,2.923-3.879,3.797-6.033
		c0.394-0.97,0.659-1.981,1.21-2.9c0.644-1.075,0.499-1.796,0.013-2.451c-0.39-0.525-0.862-0.985-1.41-1.6
		c0.416-0.098,0.649-0.201,0.836-0.188c2.375,0.17,4.83-0.501,7.326-1.537c1.239-0.514,1.631-0.41,2.147,0.565
		c0.344,0.649,0.656,1.319,1.005,1.964c1.004,1.857,3.862,2.885,6.649,1.092c0.609-0.392,1.267-0.712,1.914-0.986
		c2.161-0.911,3.658-2.536,4.972-4.409c0.364-0.519,0.583-0.991,0.618-1.425c0.284-0.202,0.566-0.493,0.886-0.896
		c-0.47-0.086-0.925-0.199-1.369-0.274C495.373,180.868,494.402,179.93,493.664,178.815z" style="fill: rgb(0, 0, 0);"></path>
	<path class="st0" d="M61.346,205.027c0.04-1.535,0.125-3.083,0.102-4.597c-0.006-0.381-0.315-0.69-0.555-0.971
		c-0.302-0.354-0.667-0.654-1.02-0.964c-0.393-0.344-0.737-0.764-1.216-0.992c-1.803-0.857-3.628-1.687-5.496-2.451
		c-0.929-0.38-1.589-0.946-1.966-1.862c-0.161-0.389-0.553-0.662-0.914-0.901c-1.648-1.091-3.683-1.457-5.999-1.325
		c-0.434,1.007-0.793,1.9-1.205,2.784c-0.84,1.8-1.444,3.556-0.944,5.177c0.119,0.386,0.107,0.843,0.226,1.23
		c0.462,1.501,0.128,3.101-0.846,4.801c-0.255,0.446-0.434,0.917-0.714,1.352c-2.69,4.192-4.962,8.517-7.89,12.648
		c-1.539,2.171-2.978,4.415-4.502,6.616c-2.069,2.986-4.414,5.575-7.755,7.186c-0.254,0.122-0.484,0.352-0.651,0.478
		c0.248,0.62,0.665,1.072,0.6,1.617c-0.172,1.45,0.628,2.094,1.612,2.673c-0.04,0.151-0.069,0.315-0.129,0.477
		c-0.514,1.389-0.201,1.801,1.149,1.504c0.585-0.129,1.169-0.241,1.755-0.391c1.729-0.442,3.451-0.987,4.891-2.465
		c1.849-1.897,4.011-2.274,6.129-2.93c0.873-0.27,1.774-0.482,2.61-0.91c1.427-0.73,2.831-1.56,4.04-2.753
		c0.797-0.786,1.573-1.685,2.481-2.253c1.319-0.824,2.211-1.892,3.076-3.065c0.304-0.412,0.676-0.977,1.06-1.13
		c1.415-0.568,1.753-1.919,2.676-2.789c1.02-0.96,2.222-1.744,2.802-3.02c0.509-1.12,1.287-2.052,2.269-2.906
		c0.39-0.339,0.728-0.778,1.005-1.203c0.7-1.075,1.208-2.228,2.433-3.024c0.309-0.201,0.568-0.753,0.655-1.126
		c0.31-1.337,1.159-2.814,0.267-3.878C61.274,205.534,61.341,205.246,61.346,205.027z" style="fill: rgb(0, 0, 0);"></path>
	<path class="st0" d="M239.968,168.444c0.19,0.337-0.158,1.114-0.391,1.676c-0.31,0.746-0.767,1.432-0.072,1.95
		c0.457,0.34,0.62,1.004,1.071,1.353c1.072,0.828,2.72,1.01,3.372,2.307c0.771,1.535,2.332,1.502,4.159,0.958
		c0.707-0.21,1.42-0.514,2.12-0.827c1.343-0.601,2.673-1.375,4.02-1.824c1.439-0.48,2.78-1.125,4.104-1.997
		c0.604-0.399,1.234-0.791,1.872-1.066c1.931-0.828,3.844-1.674,5.624-3.008c0.745-0.558,1.548-1.022,2.304-1.565
		c1.562-1.122,3.252-2.128,4.629-3.44c1.816-1.73,3.434-3.676,5.03-5.596c0.693-0.833,1.122-1.834,1.517-2.499
		c0.41-2.451-0.03-4.242-1.182-5.554c-1.034-1.178-2.368-2.119-3.731-2.969c-1.217-0.759-2.361-1.562-3.37-2.553
		c-1.343-1.319-3.159-1.803-5.573-1.15c-1.657,0.449-3.305,0.668-4.962,1.055c-0.825,0.193-1.714,0.384-2.484,0.825
		c-3.257,1.869-6.81,3.433-8.481,7.255c-0.048,0.11-0.147,0.215-0.226,0.32c-3.262,4.358-6.582,8.685-8.654,13.499
		C240.236,166.589,239.422,167.476,239.968,168.444z M254.311,159.695c0.902-2.776,2.846-4.815,5.521-6.351
		c0.226-0.13,0.485-0.306,0.694-0.321c1.97-0.141,3.946-0.299,5.889-0.345c0.742-0.017,0.773,0.602,0.094,1.385
		c-2.61,3.005-4.945,6.221-8.065,8.84c-0.293,0.246-0.528,0.564-0.604,0.646c-0.815-0.338-1.491-0.694-2.246-0.916
		C254.173,162.215,253.775,161.345,254.311,159.695z" style="fill: rgb(0, 0, 0);"></path>
	<path class="st0" d="M181.437,198.083c-1.623-1.052-3.293-1.997-4.261-3.7c-0.09-0.158-0.352-0.189-0.489-0.323
		c-0.37-0.362-0.706-0.756-1.073-1.12c-0.742-0.737-1.48-1.479-2.251-2.187c-0.376-0.345-0.836-0.607-1.231-0.935
		c-0.274-0.227-0.503-0.502-0.78-0.783c-1.377,1.812-1.904,2.849-1.949,4.507c-0.068,2.524-1.12,4.992-2.498,7.472
		c-0.184,0.332-0.361,0.769-0.642,0.954c-1.358,0.896-1.866,2.169-2.524,3.4c-0.235,0.439-0.537,0.943-0.926,1.248
		c-1.07,0.839-1.663,1.887-2.231,2.957c-0.358,0.673-0.712,1.308-1.683,1.73c0.092-0.686,0.16-1.232,0.24-1.782
		c0.268-1.836,0.268-3.527-0.536-4.992c-0.681-1.241-1.078-2.691-1.498-4.102c-0.266-0.894-0.62-1.597-1.446-2.107
		c-0.881-0.544-1.409-1.519-2.093-2.308c-0.523,0.685-0.972,1.519-1.637,2.099c-2.517,2.196-3.824,4.634-4.065,7.398
		c-0.053,0.61-0.195,1.276-0.473,1.892c-0.705,1.565-0.923,3.074-1.243,4.619c-0.416,2.005-0.038,3.413,1.292,4.498
		c1.024,0.836,2.085,0.913,3.69,0.206c0.087-0.038,0.176-0.068,0.263-0.105c0.003,0.006,0.004,0.012,0.007,0.017
		c0.32,0.571,0.938,1.067,1.646,1.546c0.821-0.252,1.515-0.591,1.958-1.075c0.438-0.477,0.627-1.097,0.455-1.91
		c0.472-0.151,0.955-0.307,1.461-0.479c-1.719,2.273-3.16,4.157-4.571,6.057c-0.509,0.684-0.946,1.405-1.415,2.11
		c-1.686,2.534-3.235,5.145-5.113,7.573c-1.015,1.312-2.009,2.584-2.792,3.987c-0.439,0.788-0.958,1.516-1.89,1.944
		c-0.362,0.166-0.675,0.574-1.134,0.982c0.19,0.04,0.358,0.076,0.521,0.11c-0.188,0.118-0.371,0.235-0.591,0.362
		c0.287,0.219,0.527,0.422,0.741,0.607c-0.196,0.203-0.384,0.398-0.57,0.59c0.042,0.113,0.084,0.226,0.127,0.34
		c0.296-0.18,0.591-0.363,0.888-0.542c0.014,0.012,0.03,0.026,0.043,0.038c0.318,0.269,0.572,0.448,0.847,0.491
		c0.519,0.081,1.023,0.005,1.378-0.245c0.355-0.25,0.561-0.675,0.485-1.292c-0.021-0.17-0.113-0.376-0.234-0.579
		c1.668-0.807,3.148-1.95,4.575-3.21c0.347-0.306,0.693-0.645,1.076-0.873c2.485-1.473,4.819-3.15,6.838-5.311
		c0.25-0.268,0.659-0.401,0.982-0.622c0.319-0.218,0.714-0.425,0.915-0.71c1.195-1.687,2.973-2.691,4.529-3.905
		c2.161-1.685,4.321-3.402,6.387-5.176c1.411-1.211,3.211-2.161,4.165-3.9c0.139-0.254,0.477-0.459,0.729-0.68
		c1.251-1.097,2.557-2.142,3.737-3.304c0.871-0.857,1.732-1.604,2.786-2.219c0.618-0.36,1.239-1.041,1.617-1.66
		C183.583,203.051,183.434,199.378,181.437,198.083z" style="fill: rgb(0, 0, 0);"></path>
	<path class="st0" d="M576.115,171.308c-2.327,0.832-4.382,0.988-6.29,0.543c3.259-0.511,6.453-0.749,9.775-2.124
		c-1.555,0.104-3.135,0.356-4.699,0.529c-3.351,0.371-6.565,0.265-9.827,0.318c-4.437,0.072-8.924,0.31-13.387,0.47
		c-7.157,0.257-14.311,0.503-21.471,0.767c-1.492,0.054-3.029,0.252-4.493,0.228c-2.924-0.048-5.818-0.182-8.709-0.325
		c-0.993-0.048-1.677-0.521-1.978-1.397c-0.287-0.839-0.585-1.673-0.913-2.606c-1.257,0.798-1.849,1.824-2.154,2.9
		c-0.337,1.186-0.834,2.271-1.77,3.313c-0.383,0.426-0.776,1.01-0.849,1.472c-0.294,1.865-0.51,3.721-0.665,5.559
		c-0.098,1.159-0.032,2.282-0.044,3.422c-0.004,0.379-0.153,0.853-0.005,1.123c0.293,0.533,0.165,1.085-0.082,1.749
		c-0.533,1.431-0.439,1.519,0.808,1.945c0.323,0.11,0.549,0.388,0.794,0.614c0.655,0.605,1.333,1.046,2.593,0.663
		c1.52-0.462,3.044-0.73,4.563-1.05c0.639-0.135,1.268-0.122,1.905-0.29c2.842-0.752,5.685-1.542,8.528-2.327
		c1.474-0.407,2.95-0.814,4.425-1.255c1.174-0.352,2.349-0.76,3.523-1.137c0.772-0.248,1.546-0.501,2.318-0.724
		c2.902-0.834,5.811-1.749,8.702-2.426c0.845-0.198,1.575-0.407,2.423-0.879c-0.132-0.391-0.238-0.703-0.351-1.038
		c1.62-1.003,3.424-0.194,4.672-1.898c0.269,0.164,0.447,0.272,0.625,0.381c0.322-0.881,0.947-0.63,1.468-0.74
		c2.574-0.544,5.16-1.169,7.718-1.601c2.789-0.47,5.532-0.68,8.351-1.278c2.807-0.595,5.586-1.58,8.38-2.51
		C578.68,171.471,576.856,172.595,576.115,171.308z" style="fill: rgb(0, 0, 0);"></path>
	<path class="st0" d="M130.378,176.986c0.105-0.16,0.249-0.312,0.395-0.448c2.258-2.103,3.168-4.493,3.641-7.001
		c0.466-2.475,0.696-4.841-0.594-6.666c-0.555-0.785-0.905-1.746-1.55-2.442c-1.217-1.313-2.857-2.149-4.51-2.979
		c-2.837-1.426-6.049-1.349-9.737,0.342c-1.573,0.722-3.184,1.38-4.692,2.282c-4.555,2.725-8.965,5.709-11.967,10.292
		c-1.056,1.612-2.396,3.175-2.822,4.972c-0.428,1.811-0.845,3.62-1.268,5.43c-0.095,0.015-0.191,0.029-0.286,0.044
		c-0.039,0.716-0.175,1.472-0.081,2.133c0.06,0.422,0.348,0.876,0.726,1.019c2.812,1.063,4.669,3.073,5.897,5.625
		c0.436,0.907,1.296,0.737,2.067,0.948c0.752,0.205,0.997,1.226,2.178,0.785c0.116-0.043,0.236-0.042,0.355-0.071
		c0.651-0.163,1.303-0.3,1.954-0.498c2.38-0.725,4.242-2.097,5.382-4.471c0.282-0.587,0.742-1.328,1.267-1.65
		c1.154-0.709,2.372-1.948,3.637-1.238c0.11,0.062,0.341-0.001,0.514-0.056C124.539,182.195,127.985,180.633,130.378,176.986z
		 M123.764,167.296c-1.126,1.667-2.336,3.299-3.527,4.937c-0.696,0.956-1.408,1.907-2.148,2.839
		c-0.645,0.813-1.34,1.598-2.109,2.509c-1.376-2.026-4.084-0.972-6.448-1.143c-0.022-1.088,0.155-2.312-0.114-3.308
		c-0.457-1.695,0.759-2.76,2.132-3.886c0.822-0.675,1.645-1.352,2.44-2.06c2.148-1.912,4.427-2.941,6.961-3.271
		c1.291-0.168,2.378-0.38,2.992,0.717C124.408,165.459,124.432,166.308,123.764,167.296z" style="fill: rgb(0, 0, 0);"></path>
	<path class="st0" d="M445.722,172.844c0.458,0.831,1.271,1.448,2.129,1.08c1.337-0.572,2.804-1.025,3.952-1.917
		c1.501-1.166,2.754-1.164,4.111-1.175c2.032-0.015,4.04,0.058,6.097-0.054c1.717-0.093,3.474-0.104,5.279-0.949
		c2.687-1.258,5.183-1.463,7.673-1.355c0.736,0.032,1.604-0.311,2.353-0.303c1.377,0.015,2.509-1.22,3.768-1.594
		c1.392-0.414,2.501-1.373,3.643-2.242c1.709-1.3,2.411-3.217,1.546-4.311c-1.902-2.402-3.721-4.924-7.441-5.298
		c0.591-1.285-0.531-1.48-0.807-2.193c-0.248-0.642-0.927-0.67-1.655-0.597c-1.791,0.182-3.596,0.411-5.367,0.514
		c-1.275,0.074-2.402,0.531-3.265,1.701c-0.597,0.81-1.331,1.058-2.09,1.309c-1.302,0.429-2.605,0.805-3.908,1.207
		c-2.368,0.73-4.727,1.729-7.104,2.017c-2.156,0.261-2.79,0.033-3.33-1.718c-0.025-0.08-0.154-0.104-0.371-0.237
		c-0.292,0.395-0.526,0.844-0.879,1.152c-0.409,0.357-0.924,0.589-1.169,0.738c-0.898,2.68-1.826,5.249-2.599,7.815
		C445.618,168.658,444.682,170.956,445.722,172.844z" style="fill: rgb(0, 0, 0);"></path>
	<path class="st0" d="M284.038,187.652c-1.979,0.504-3.658,1.119-5.246,1.298c-4.028,0.453-8.015,0.706-12.021,1.048
		c-1.279,0.109-2.553,0.169-3.849,0.388c-3.353,0.566-6.719,1.221-10.077,1.815c-1.059,0.187-2.127,0.366-3.153,0.412
		c-0.537,0.024-1.357-0.083-1.422-0.415c-0.262-1.34-1.706-1.209-2.467-1.87c-1.191,0.693-1.636,1.591-1.796,2.63
		c-0.19,1.235-0.429,2.478-0.628,3.715c-0.163,1.016-0.371,2.045-0.431,3.036c-0.134,2.206-0.153,4.383-0.286,6.589
		c-0.121,2.003,1.292,3.725,4.118,2.725c1.544-0.547,2.928-0.611,4.386-0.822c1.926-0.279,3.899-0.524,5.828-1.193
		c2.098-0.728,4.183-1.637,6.273-2.519c0.03,0.067,0.05,0.134,0.086,0.2c0.359,0.652,1.001,1.26,1.813,1.613
		c0.748,0.326,1.541,0.391,2.218,0.234c0.676-0.157,1.235-0.536,1.515-1.1c0.219-0.442,0.158-1.061-0.095-1.656
		c-0.214-0.502-0.57-0.979-1.007-1.325c1.311-0.876,2.31-2.074,3.086-3.37c0.557-0.932,1.142-1.555,1.967-2.046
		c2.68-1.593,5.383-3.127,8.071-4.701c0.449-0.262,0.878-0.591,1.295-0.919c0.767-0.603,1.52-1.23,2.539-2.058
		c-1.137,0.063-2.081,0.115-3.184,0.176C282.402,188.901,283.098,188.369,284.038,187.652z" style="fill: rgb(0, 0, 0);"></path>
	<path class="st0" d="M383.136,194.912c1.097-0.669,2.195-1.359,3.309-2.006c0.32-0.186,0.715-0.342,1.025-0.346
		c0.844-0.013,1.671,0.307,2.485,0.035c0.788-0.263,1.582-1.062,2.318-1.693c0.694-0.595,1.352-1.252,1.961-1.929
		c1.48-1.643,1.498-3.355,1.741-5.041c0.17-1.182,0.307-2.359,0.395-3.524c0.113-1.497,0.41-3.085,0.189-4.447
		c-0.554-3.419-1.812-6.466-3.6-9.164c-1.058-1.597-2.045-3.218-2.323-5.296c-0.019-0.138-0.139-0.234-0.286-0.466
		c-0.724,2.274-2.053,4.232-3.37,6.218c-1.178,1.776-2.159,3.633-3.196,5.463c-0.504,0.889-1.01,1.789-1.387,2.697
		c-0.731,1.764-1.454,3.536-2.018,5.305c-0.343,1.076-0.355,2.149-0.561,3.229c-0.502,2.633-0.61,5.115,0.188,7.351
		C380.567,192.87,381.212,194.299,383.136,194.912z" style="fill: rgb(0, 0, 0);"></path>
	<path class="st0" d="M141.422,217.676c0.707-2.088,0.581-3.778-0.885-4.912c-0.533-0.412-0.42-1.331,0.122-1.969
		c0.756-0.891,1.509-1.783,2.251-2.661c-0.51-0.418-1.067-0.659-1.288-1.119c-0.196-0.407-0.019-1.059-0.011-1.4
		c-1.896,0.633-3.727,1.287-5.557,1.827c-0.467,0.137-1.137,0.092-1.362-0.174c-0.892-1.053-1.821-2.049-3.114-2.682
		c-0.041-0.02-0.043-0.089-0.073-0.127c-0.72-0.896-1.441-1.79-2.12-2.633c-0.44,0.55-0.902,1.162-1.403,1.746
		c-1.03,1.201-1.732,2.408-1.73,3.792c0.001,0.865-0.167,1.796-0.385,2.707c-0.318,1.331-0.563,2.601-0.29,3.815
		c0.151,0.673-0.062,1.535-0.195,2.324c-0.124,0.739-0.367,1.495-0.541,2.242c-0.63,2.716,0.548,4.326,2.455,5.39
		c0.944,0.527,2.163,0.694,3.182,1.132c0.776,0.334,1.618,0.211,2.517-0.182c1.4-0.613,2.804-1.243,4.176-1.967
		c1.551-0.819,3.126-1.709,3.823-3.464C141.213,218.806,141.232,218.237,141.422,217.676z" style="fill: rgb(0, 0, 0);"></path>
	<path class="st0" d="M512.168,156.859c2.36-1.171,4.391-2.735,6.25-4.81c2.987-3.336,4.226-6.997,5.819-10.767
		c0.014-0.205,0.141-0.599,0.04-0.859c-0.504-1.301-0.845-2.758-1.682-3.786c-0.693-0.851-1.076-1.816-1.497-2.816
		c-0.399-0.948-0.945-1.836-1.627-2.569c-0.55-0.591-1.143-0.297-1.605,0.632c-0.248,0.5-0.414,1.015-0.616,1.523
		c-1.064,2.675-1.775,5.389-3.659,7.958c-2.909,3.968-5.706,7.992-8.635,11.95c-0.789,1.067-1.801,2.017-2.71,3.027
		c-0.272-0.081-0.546-0.149-0.821-0.196c0.38-0.328,0.762-0.654,1.134-0.99c0.374-0.339,0.73-0.804,0.906-1.231
		c0.591-1.433,0.942-2.847,0.815-4.208c-0.119-1.27-0.099-2.595-0.26-3.846c-0.134-1.038-0.327-2.075-0.706-2.982
		c-0.394-0.944-1.042-1.733-1.685-2.756c-1.254,0.216-1.609,0.499-2.464,1.766c-0.614,0.91-1.33,1.779-2.01,2.661
		c-1.247,1.619-2.629,3.186-3.719,4.865c-1.162,1.79-2.126,3.671-3.026,5.539c-0.479,0.996-0.762,2.071-0.888,3.065
		c-0.057,0.449,0.356,1.044,0.778,1.127c1.334,0.262,2.303,1.469,4.199,0.417c0.223-0.124,0.532,0.046,0.812,0.044
		c1.327-0.013,2.588-0.557,3.78-1.511c0.552-0.081,1.102-0.171,1.651-0.273c0.197-0.036,0.395-0.075,0.592-0.112
		c-0.064,0.203-0.101,0.397-0.068,0.536c0.305,1.294,2.436,2.058,3.912,1.114c0.919-0.588,2.158-1.439,2.865-1.331
		C509.516,158.264,510.811,157.531,512.168,156.859z" style="fill: rgb(0, 0, 0);"></path>
	<path class="st0" d="M438.799,218.456c0.537-0.322,1.074-0.644,1.848-1.108C439.612,217.107,439.179,217.717,438.799,218.456z" style="fill: rgb(0, 0, 0);"></path>
</g>
</svg>
